<?xml version="1.0" encoding="utf-8"?>
<!-- Generator: Adobe Illustrator 16.0.0, SVG Export Plug-In . SVG Version: 6.00 Build 0)  -->
<!DOCTYPE svg PUBLIC "-//W3C//DTD SVG 1.1//EN" "http://www.w3.org/Graphics/SVG/1.1/DTD/svg11.dtd">
<svg version="1.1" id="Warstwa_1" xmlns="http://www.w3.org/2000/svg" xmlns:xlink="http://www.w3.org/1999/xlink" x="0px" y="0px"
	 width="63.301px" height="78.861px" viewBox="0 0 63.301 78.861" enable-background="new 0 0 63.301 78.861" xml:space="preserve">
<path fill="#FFFFFF" d="M0.192,25.005c0.67-1.94,3.572-2.581,8.713-1.921c0.633-1.318,0.932-2.032,0.896-2.142
	c2.146-0.806,4.381-0.092,6.705,2.142c2.816,2.707,4.875,4.151,6.176,4.336c2.818,0.365,5.457-0.568,7.92-2.8
	c1.092-0.951,2.8-3.056,5.121-6.313c0.563-0.73,1.354-1.994,2.376-3.787c0.986-1.682,1.777-2.927,2.376-3.731
	c2.007-2.634,4.558-3.934,7.655-3.897c-1.266-1.756-1.564-3.293-0.896-4.609c0.563-1.099,1.618-1.757,3.168-1.977
	c1.549-0.183,2.797,0.184,3.748,1.098c1.127,1.024,1.407,2.544,0.844,4.557c0.846-0.513,1.638-0.586,2.377-0.22
	c0.668,0.328,1.18,0.913,1.531,1.756c0.387,0.842,0.51,1.683,0.367,2.524c-0.14,0.914-0.563,1.628-1.267,2.141
	c0.317,0.402,1.391,1.097,3.22,2.086c1.516,0.768,2.201,1.409,2.061,1.921c-7.567,0-11.246,3.896-11.035,11.689
	c0,0.257,0.633,3.057,1.902,8.398c0.737,3.33,0.334,5.141-1.216,5.434c-1.338,0.256-2.358-0.422-3.063-2.03
	c-0.176-0.403-0.422-1.136-0.738-2.195c-0.316-0.915-0.581-1.575-0.792-1.978c-0.282,1.573-0.968,2.653-2.06,3.238
	c-1.021,0.513-2.129,0.531-3.326,0.056c-1.195-0.477-2.092-1.316-2.692-2.524c-0.668-1.318-0.792-2.836-0.369-4.556
	c-0.387,0.768-0.983,1.316-1.795,1.646c-0.81,0.293-1.603,0.293-2.376,0c-0.809-0.292-1.389-0.823-1.742-1.59
	c-0.423-0.879-0.439-1.94-0.053-3.184c0.389,1.938,1.443,2.688,3.168,2.25c1.584-0.366,2.745-1.264,3.484-2.69
	c-0.141,1.646,0.088,3.146,0.687,4.501c0.599,1.245,1.372,2.141,2.322,2.69c0.985,0.549,1.919,0.585,2.799,0.108
	c0.985-0.475,1.726-1.48,2.218-3.018c0.071,0.182,0.281,0.73,0.635,1.646c0.246,0.696,0.475,1.227,0.686,1.592
	c0.6,1.135,1.461,1.793,2.587,1.977c0.283-1.427,0.179-3.185-0.315-5.27c-0.668-2.78-1.037-4.428-1.109-4.938
	c-0.21-3.257,0.546-6.001,2.271-8.234c1.725-2.194,4.116-3.512,7.18-3.951c-0.211-0.401-0.635-0.769-1.268-1.098
	c-0.563-0.256-0.826-0.438-0.793-0.548c-0.068,0.036-0.191,0.347-0.369,0.932c-0.141,0.366-0.404,0.53-0.791,0.494
	c-0.389-0.438-0.547-1.39-0.477-2.854c-0.527-0.365-1.195-0.878-2.006-1.536c-0.773-0.622-1.354-1.043-1.742-1.264
	c-1.23-0.842-2.586-1.354-4.064-1.536c-1.972-0.22-3.607,0.092-4.91,0.933c-0.879,0.512-1.918,1.555-3.114,3.128
	c-0.774,1.025-1.83,2.617-3.168,4.776c-1.655,2.635-2.798,4.39-3.433,5.268c-2.851,4.208-5.456,6.751-7.813,7.629
	c-1.689,0.586-3.309,0.458-4.857-0.384c-0.984-0.548-2.252-1.627-3.801-3.238c-1.549-1.646-2.693-2.688-3.432-3.128
	c-1.268-0.731-2.516-0.714-3.748,0.056c-0.176,1.976-0.266,3.092-0.266,3.348c-0.949-0.805-2.129-1.281-3.537-1.427
	c-1.619-0.184-2.569,0.293-2.853,1.427c-0.386,1.463,0.231,2.945,1.851,4.445c2.393,2.231,3.607,3.366,3.643,3.402
	c-1.795-0.108-2.869,0.457-3.221,1.701c-0.879,3.293,2.342,6.221,9.662,8.783c-0.246,0.364-0.811,0.84-1.689,1.426
	c-0.635,0.438-0.986,1.007-1.057,1.702c-0.176,1.17,0.369,2.25,1.637,3.238c1.83,1.464,2.816,2.287,2.957,2.47
	c-0.387,0.145-0.633,0.548-0.74,1.208c-2.568-0.807-4.541-1.958-5.912-3.458c-1.795-1.977-2.041-4.172-0.74-6.586
	c-2.813-0.074-5.049-1.593-6.705-4.557c-0.738-1.354-1.02-2.635-0.844-3.842c0.211-1.354,0.984-2.433,2.322-3.237
	c-0.316-0.366-0.896-0.915-1.742-1.647c-0.879-0.768-1.531-1.372-1.953-1.811C0.159,27.877-0.3,26.394,0.192,25.005 M48.607,6.673
	c2.885,1.024,5.473,2.36,7.76,4.006c0.81-0.988,0.721-1.902-0.265-2.744c-1.019-0.878-1.987-0.915-2.903-0.109
	c0.459-1.025,0.459-1.957,0-2.8c-0.388-0.73-0.984-1.226-1.795-1.48c-0.844-0.22-1.547-0.092-2.11,0.383
	C48.66,4.477,48.43,5.392,48.607,6.673 M54.572,13.807c-0.599,0.659-1.373,0.915-2.322,0.77c-1.021-0.11-1.549-0.678-1.584-1.701
	c0.529-0.806,1.267-1.079,2.217-0.824C53.834,12.307,54.396,12.893,54.572,13.807 M51.563,12.6c-0.07,0.477,0.088,0.714,0.475,0.714
	c0.389,0,0.547-0.237,0.476-0.714c-0.176-0.146-0.317-0.182-0.422-0.108C51.916,12.564,51.74,12.6,51.563,12.6 M43.063,55.52
	c4.401-3.732,7.321-8.25,8.766-13.556c-0.106,7.208-2.869,12.293-8.289,15.257C43.221,56.27,43.063,55.704,43.063,55.52
	 M15.767,61.503c-0.176,0.841-0.244,1.48-0.212,1.922c0.459,0.511,1.83,1.297,4.119,2.359c-1.724-1.537-2.621-4.007-2.692-7.409
	c-0.033-1.5,0.193-2.744,0.688-3.732c0.492-1.062,1.249-1.646,2.27-1.757c1.795-0.146,3.625,0.824,5.49,2.91
	c-0.316-0.11-0.738-0.312-1.266-0.604c-0.635-0.401-1.039-0.642-1.215-0.715c-1.058-0.474-2.062-0.51-3.01-0.108
	c-1.162,2.086-1.339,4.373-0.527,6.86c0.843,2.67,2.461,3.641,4.854,2.908c0.39,1.098,0.582,1.609,0.582,1.537
	c0.07,0.512-0.192,0.859-0.793,1.042c0.425-0.036,0.916,0,1.479,0.11c0.599,0.145,1.092,0.2,1.479,0.164
	c-1.443-0.732-2.27-2.121-2.48-4.171c-0.178-1.866,0.14-3.842,0.949-5.929c0.844-2.049,1.918-3.567,3.221-4.555
	c1.408-1.062,2.763-1.116,4.063-0.164c2.008,1.5,3.275,3.987,3.803,7.463c0.563,3.66-0.177,6.184-2.219,7.575
	c0.458-0.074,1.778-0.239,3.96-0.495c1.69-0.22,2.992-0.438,3.907-0.658c2.781-0.768,4.223-2.214,4.329-4.336
	c0.95,2.415-0.246,4.244-3.591,5.489c-2.461,0.915-5.859,1.479-10.189,1.701c-4.047,0.182-8.94-0.457-14.676-1.922
	c0.421,2.743,1.776,5.051,4.063,6.916c2.112,1.721,4.666,2.836,7.656,3.349c2.956,0.476,5.738,0.274,8.343-0.604
	c2.78-0.95,4.84-2.543,6.178-4.773c-2.288,3.988-5.614,6.256-9.979,6.805c-7.742,0.951-13.32-1.829-16.734-8.341
	c-1.268-2.489-2.041-4.118-2.324-4.885C14.659,63.515,14.817,62.198,15.767,61.503 M39.421,54.588
	c-0.318,0.144-0.845,0.548-1.585,1.207c-0.6,0.512-1.074,0.75-1.426,0.713c0-0.732,0.439-1.463,1.318-2.195
	c0.881-0.695,1.742-1.007,2.588-0.933c1.196,0.146,2.094,1.079,2.692,2.798c0.563,1.611,0.722,3.35,0.476,5.215
	c-0.317,2.012-1.004,3.457-2.06,4.336c-1.267,1.026-2.851,1.043-4.752,0.056c-0.07-0.329,0-0.642,0.211-0.935
	c0.212-0.328,0.283-0.658,0.212-0.985c1.867,0.84,3.344,0.768,4.436-0.222c0.879-0.842,1.373-2.121,1.479-3.842
	c0.072-1.647-0.229-3.037-0.896-4.171C41.373,54.423,40.477,54.074,39.421,54.588 M38.734,70.777
	c0.984,0.111,2.428-0.364,4.328-1.426c0,1.024-0.58,1.774-1.742,2.25C40.126,72.041,39.261,71.765,38.734,70.777 M38.259,73.632
	c-0.035,1.208-0.792,1.921-2.269,2.142c-1.408,0.182-2.483-0.129-3.223-0.934C35.654,75.022,37.486,74.619,38.259,73.632
	 M36.199,59.801c-0.141-1.5-0.58-2.872-1.32-4.116c-0.809-1.318-1.742-2.087-2.798-2.306c-0.739-0.147-1.511,0.146-2.323,0.877
	c-0.772,0.696-1.425,1.629-1.953,2.8c-1.301,2.819-1.337,5.086-0.104,6.807c0.634,0.878,1.477,1.444,2.533,1.701
	c0.95,0.22,1.919,0.127,2.903-0.273C35.426,64.301,36.445,62.472,36.199,59.801 M25.429,47.177c1.762,0,3.557-0.914,5.387-2.744
	c2.076-2.049,3.257-3.11,3.536-3.183c-0.35,0.33-0.984,1.098-1.898,2.305c-0.916,1.207-1.69,2.104-2.323,2.689
	c-2.112,2.123-4.521,3-7.232,2.636c-1.973-0.293-3.592-1.282-4.857-2.964c-1.409-1.904-1.233-3.623,0.527-5.159
	c-0.81-0.22-1.338-0.623-1.584-1.208c-0.177-0.512-0.105-1.062,0.211-1.647c0.774-1.427,2.06-1.901,3.854-1.427
	c-0.879,0.403-1.285,1.099-1.215,2.086c0.069,0.988,0.632,1.556,1.688,1.701c-2.146,1.281-2.604,2.781-1.373,4.5
	C21.347,46.408,23.106,47.215,25.429,47.177 M25.218,69.845c0.811,1.171,3.626,1.481,8.446,0.932
	c-0.105,0.587-0.686,0.897-1.742,0.936c-1.337,0.036-2.129,0.128-2.375,0.273c1.513,0,2.658,0.164,3.432,0.492
	c-1.407,0.808-2.991,0.935-4.752,0.386c-1.653-0.512-2.815-1.354-3.483-2.523C24.778,69.936,24.937,69.772,25.218,69.845
	 M21.733,70.777c0.738,1.722,2.887,3.002,6.441,3.843c-1.898,0.146-3.449-0.091-4.646-0.713
	C22.155,73.212,21.558,72.169,21.733,70.777"/>
<line fill="none" x1="-789.733" y1="0" x2="287.283" y2="0"/>
</svg>
