<?xml version="1.0" encoding="utf-8"?>
<!-- Generator: Adobe Illustrator 16.0.0, SVG Export Plug-In . SVG Version: 6.00 Build 0)  -->
<!DOCTYPE svg PUBLIC "-//W3C//DTD SVG 1.1//EN" "http://www.w3.org/Graphics/SVG/1.1/DTD/svg11.dtd">
<svg version="1.1" id="Warstwa_1" xmlns="http://www.w3.org/2000/svg" xmlns:xlink="http://www.w3.org/1999/xlink" x="0px" y="0px"
	 width="353.643px" height="301.987px" viewBox="0 0 353.643 301.987" enable-background="new 0 0 353.643 301.987"
	 xml:space="preserve">
<path fill="#FFFFFF" d="M265.569,40.516c11.088-5.395,20.506-1.734,28.279,10.943c7.017,11.92,10.176,26.516,9.416,43.821
	c-1.106,18.073-6.296,31.512-15.529,40.354c-11.468,10.39-26.987,11.149-46.589,2.328c0.737,3.437,0,6.903-2.236,10.351
	c-2.216,3.076-2.955,6.359-2.216,9.815c19.972,10.37,36.608,10.187,49.913-0.585c11.098-9.23,18.31-24.413,21.644-45.543
	c2.584-19.592,0.903-37.86-5.007-54.774c-6.275-18.063-15.714-27.859-28.269-29.398c-8.883-0.769-17.931,2.503-27.183,9.807
	c-9.232,7.682-13.848,15.365-13.848,23.049c3.693,0.389,8.677-2.103,14.976-7.488C256.697,46.28,262.236,42.033,265.569,40.516z"/>
<path fill="#FFFFFF" d="M285.52,219.222c12.206-5.006,18.299-12.884,18.299-23.633c-19.96,11.148-35.131,16.145-45.461,14.975
	C263.896,220.945,272.976,223.837,285.52,219.222z"/>
<path fill="#FFFFFF" d="M79.775,210.564c-1.826,14.617,4.43,25.572,18.853,32.876c12.577,6.534,28.865,9.026,48.805,7.487
	C110.106,242.096,87.53,228.649,79.775,210.564z"/>
<path fill="#FFFFFF" d="M229.535,263.051c15.509-2.316,23.469-9.815,23.828-22.505c-8.113,10.371-27.357,14.607-57.68,12.689
	C203.449,261.698,214.742,264.959,229.535,263.051z"/>
<path fill="#FFFFFF" d="M197.9,228.433c-8.124-3.447-20.146-5.17-36.045-5.17c2.584-1.528,10.903-2.493,24.947-2.872
	c11.098-0.41,17.19-3.663,18.299-9.827c-50.631,5.766-80.194,2.514-88.718-9.785c-2.944-0.77-4.625,0.953-4.975,5.2
	c7.017,12.288,19.223,21.131,36.58,26.505C166.491,238.25,183.13,236.917,197.9,228.433z"/>
<path fill="#FFFFFF" d="M340.408,115.436c-1.119,22.281-16.258,37.471-45.473,45.543c-9.609,2.309-23.283,4.597-41.029,6.903
	c-22.927,2.698-36.783,4.433-41.604,5.2c21.458-14.605,29.224-41.122,23.306-79.566c-5.539-36.507-18.853-62.632-39.944-78.388
	c-13.65-9.991-27.878-9.426-42.67,1.723c-13.684,10.38-24.966,26.321-33.829,47.851c-8.503,21.921-11.838,42.671-9.97,62.272
	c2.204,21.532,10.894,36.117,26.053,43.811c-4.072,0.379-9.251-0.195-15.54-1.724c-5.918-1.159-11.068-1.527-15.54-1.159
	c6.319-1.918,9.068-5.56,8.33-10.944c0,0.759-2.011-4.605-6.114-16.135c-25.131,7.693-42.127-2.502-50.979-30.547
	c-8.536-26.126-6.667-50.148,5.539-72.059c9.949-4.226,20.493-3.848,31.613,1.138c1.846,0.759,6.093,3.292,12.76,7.509
	c5.54,3.068,9.972,5.189,13.295,6.339c-19.592-21.91-38.814-32.096-57.667-30.557c-10.72,1.159-18.669,7.293-23.838,18.454
	c-5.201,10.369-7.57,23.438-7.223,39.193c0.739,35.736,10.165,61.678,28.271,77.823c-24.044-11.148-38.446-19.406-43.267-24.781
	c-0.328-4.636,0.38-11.344,2.236-20.186c-9.99,7.303-11.643,21.141-4.985,41.512c2.975,8.063,11.098,25.172,24.413,51.307
	c35.861,68.409,94.452,97.602,175.772,87.62c45.842-5.774,80.777-29.593,104.812-71.485c-14.054,23.429-35.697,40.158-64.89,50.141
	c-27.365,9.221-56.581,11.344-87.64,6.338c-31.409-5.386-58.221-17.1-80.419-35.173c-24.012-19.592-38.239-43.829-42.671-72.644
	c60.253,15.386,111.643,22.096,154.149,20.187c45.483-2.327,81.179-8.258,107.028-17.869
	C337.822,160.005,350.389,140.803,340.408,115.436z M169.077,155.81c-11.099-2.698-19.951-8.646-26.608-17.869
	c-12.955-18.073-12.577-41.891,1.087-71.495c5.549-12.297,12.412-22.104,20.515-29.417c8.533-7.673,16.637-10.75,24.402-9.212
	c11.089,2.309,20.895,10.381,29.388,24.229c7.774,13.067,12.392,27.479,13.869,43.235c2.585,28.055-8.125,47.268-32.168,57.657
	C189.223,157.143,179.047,158.117,169.077,155.81z"/>
</svg>
