<?xml version="1.0" encoding="utf-8"?>
<!-- Generator: Adobe Illustrator 16.0.0, SVG Export Plug-In . SVG Version: 6.00 Build 0)  -->
<!DOCTYPE svg PUBLIC "-//W3C//DTD SVG 1.1//EN" "http://www.w3.org/Graphics/SVG/1.1/DTD/svg11.dtd">
<svg version="1.1" xmlns="http://www.w3.org/2000/svg" xmlns:xlink="http://www.w3.org/1999/xlink" x="0px" y="0px"
	 width="286.312px" height="215.344px" viewBox="0 0 286.312 215.344" enable-background="new 0 0 286.312 215.344"
	 xml:space="preserve">
<g id="Warstwa_3" display="none">
	<linearGradient id="SVGID_1_" gradientUnits="userSpaceOnUse" x1="-0.2974" y1="107.6724" x2="286.0142" y2="107.6724">
		<stop  offset="0" style="stop-color:#FFF33B"/>
		<stop  offset="0.0595" style="stop-color:#FFE029"/>
		<stop  offset="0.1303" style="stop-color:#FFD218"/>
		<stop  offset="0.2032" style="stop-color:#FEC90F"/>
		<stop  offset="0.2809" style="stop-color:#FDC70C"/>
		<stop  offset="0.6685" style="stop-color:#F3903F"/>
		<stop  offset="0.8876" style="stop-color:#ED683C"/>
		<stop  offset="1" style="stop-color:#E93E3A"/>
	</linearGradient>
	<rect x="-0.297" y="0.351" display="inline" fill="url(#SVGID_1_)" width="286.312" height="214.643"/>
</g>
<g id="Warstwa_4">
</g>
<g id="Warstwa_5">
</g>
<g id="Warstwa_6">
</g>
<g id="Warstwa_2">
	<g>
		<defs>
			<path id="SVGID_2_" d="M286.143,109.111c-0.1-0.281-0.242-0.556-0.416-0.808c-0.176-0.252-0.381-0.483-0.607-0.677
				c-0.227-0.194-0.477-0.352-0.734-0.457L165.452,58.676c-0.174-0.072-0.351-0.165-0.53-0.28c-0.179-0.115-0.362-0.253-0.55-0.417
				c-0.188-0.164-0.381-0.352-0.578-0.569c-0.199-0.217-0.402-0.463-0.613-0.739c-0.314-0.41-0.635-0.888-0.955-1.425
				c-0.321-0.537-0.643-1.134-0.96-1.783s-0.629-1.349-0.93-2.093s-0.591-1.533-0.863-2.357c-0.274-0.826-0.534-1.688-0.774-2.579
				c-0.24-0.891-0.461-1.811-0.66-2.751c-0.199-0.942-0.377-1.906-0.529-2.884c-0.151-0.979-0.277-1.974-0.375-2.976
				c-0.131-1.337-0.205-2.622-0.225-3.842c-0.021-1.223,0.012-2.38,0.094-3.46c0.081-1.082,0.211-2.085,0.384-2.998
				c0.173-0.914,0.39-1.737,0.644-2.456c0.127-0.359,0.262-0.692,0.406-0.997c0.143-0.305,0.293-0.583,0.451-0.832
				c0.156-0.25,0.319-0.47,0.486-0.662c0.166-0.192,0.338-0.355,0.511-0.488c0.031-0.024,0.063-0.046,0.095-0.069
				c0.031-0.022,0.063-0.043,0.094-0.063s0.063-0.04,0.094-0.058c0.031-0.019,0.062-0.036,0.094-0.053
				C108.802,49.339,57.352,76.834,5.898,104.326c-0.026,0.014-0.053,0.028-0.08,0.045c-0.026,0.017-0.053,0.033-0.079,0.052
				c-0.026,0.018-0.053,0.037-0.079,0.057s-0.052,0.04-0.079,0.063c-0.143,0.121-0.281,0.275-0.412,0.461
				c-0.13,0.185-0.254,0.401-0.369,0.647c-0.114,0.247-0.22,0.524-0.315,0.832c-0.095,0.307-0.181,0.644-0.253,1.011
				c-0.148,0.731-0.249,1.578-0.298,2.527c-0.05,0.945-0.049,1.992,0.005,3.125c0.054,1.131,0.162,2.35,0.327,3.645
				c0.164,1.289,0.385,2.654,0.666,4.08c0.208,1.066,0.443,2.129,0.699,3.178s0.533,2.086,0.829,3.102
				c0.295,1.014,0.608,2.006,0.935,2.973c0.326,0.965,0.667,1.9,1.018,2.803c0.349,0.898,0.708,1.762,1.073,2.58
				s0.734,1.59,1.102,2.309c0.368,0.719,0.735,1.383,1.093,1.984c0.359,0.602,0.71,1.14,1.047,1.607
				c0.227,0.314,0.443,0.597,0.651,0.847c0.208,0.251,0.407,0.472,0.599,0.665c0.191,0.193,0.376,0.359,0.556,0.501
				c0.179,0.142,0.351,0.258,0.52,0.354l116.587,65.337c0.257,0.145,0.51,0.342,0.747,0.576c0.236,0.233,0.458,0.504,0.65,0.793
				s0.358,0.598,0.485,0.908c0.126,0.311,0.213,0.622,0.25,0.919c0.018,0.149,0.023,0.288,0.016,0.414
				c-0.008,0.127-0.028,0.241-0.06,0.344c-0.032,0.102-0.075,0.191-0.128,0.269c-0.053,0.076-0.118,0.139-0.19,0.188
				c50.795-34.118,101.59-68.239,152.381-102.357c0.084-0.057,0.16-0.125,0.225-0.205c0.066-0.078,0.123-0.17,0.168-0.271
				s0.078-0.215,0.102-0.336c0.021-0.121,0.031-0.254,0.027-0.395c-0.006-0.279-0.064-0.566-0.164-0.846L286.143,109.111z"/>
		</defs>
		<clipPath id="SVGID_3_">
			<use xlink:href="#SVGID_2_"  overflow="visible"/>
		</clipPath>
		<linearGradient id="SVGID_4_" gradientUnits="userSpaceOnUse" x1="0" y1="108.0229" x2="286.312" y2="108.0229">
			<stop  offset="0" style="stop-color:#FFF33B"/>
			<stop  offset="0.0595" style="stop-color:#FFE029"/>
			<stop  offset="0.1303" style="stop-color:#FFD218"/>
			<stop  offset="0.2032" style="stop-color:#FEC90F"/>
			<stop  offset="0.2809" style="stop-color:#FDC70C"/>
			<stop  offset="0.6685" style="stop-color:#F3903F"/>
			<stop  offset="0.8876" style="stop-color:#ED683C"/>
			<stop  offset="1" style="stop-color:#E93E3A"/>
		</linearGradient>
		<rect y="0.701" clip-path="url(#SVGID_3_)" fill="url(#SVGID_4_)" width="286.312" height="214.643"/>
	</g>
	<g>
		<defs>
			<path id="SVGID_5_" d="M158.215,23.41c-0.146-0.054-0.291-0.095-0.436-0.12s-0.289-0.035-0.432-0.028
				c-0.145,0.006-0.287,0.029-0.43,0.07c-0.144,0.041-0.287,0.099-0.431,0.176c-49.211,26.305-98.419,52.608-147.63,78.913
				c0.124-0.066,0.25-0.113,0.377-0.142c0.128-0.028,0.258-0.037,0.389-0.029c0.132,0.008,0.266,0.032,0.402,0.074
				c0.136,0.041,0.275,0.099,0.417,0.172l116.22,60.348l150.197-94.58L158.215,23.413V23.41z"/>
		</defs>
		<clipPath id="SVGID_6_">
			<use xlink:href="#SVGID_5_"  overflow="visible"/>
		</clipPath>
		<linearGradient id="SVGID_7_" gradientUnits="userSpaceOnUse" x1="-0.2969" y1="107.6724" x2="286.0151" y2="107.6724">
			<stop  offset="0" style="stop-color:#FFF33B"/>
			<stop  offset="0.0595" style="stop-color:#FFE029"/>
			<stop  offset="0.1303" style="stop-color:#FFD218"/>
			<stop  offset="0.2032" style="stop-color:#FEC90F"/>
			<stop  offset="0.2809" style="stop-color:#FDC70C"/>
			<stop  offset="0.6685" style="stop-color:#F3903F"/>
			<stop  offset="0.8876" style="stop-color:#ED683C"/>
			<stop  offset="1" style="stop-color:#E93E3A"/>
		</linearGradient>
		<rect x="-0.297" y="0.351" clip-path="url(#SVGID_6_)" fill="url(#SVGID_7_)" width="286.312" height="214.643"/>
		<path clip-path="url(#SVGID_6_)" fill="#409745" d="M124.271,181.701c0.216,1.691,0.498,3.38,0.837,5.047
			c0.339,1.664,0.737,3.31,1.187,4.919c0.449,1.607,0.949,3.181,1.495,4.703c0.545,1.521,1.136,2.994,1.765,4.401
			c0.185,0.41,0.373,0.816,0.564,1.217c0.191,0.4,0.387,0.795,0.585,1.184c0.199,0.389,0.4,0.771,0.606,1.148
			s0.415,0.747,0.628,1.111l-113.99-63.407c-0.17-0.096-0.344-0.213-0.523-0.354c-0.18-0.142-0.366-0.308-0.559-0.502
			c-0.193-0.193-0.393-0.414-0.602-0.666c-0.208-0.251-0.426-0.532-0.653-0.849c-0.338-0.469-0.69-1.01-1.05-1.613
			c-0.36-0.604-0.728-1.27-1.096-1.99c-0.369-0.721-0.739-1.496-1.104-2.316c-0.365-0.82-0.725-1.686-1.074-2.588
			c-0.35-0.904-0.69-1.844-1.017-2.813s-0.638-1.967-0.932-2.984c-0.294-1.02-0.57-2.059-0.825-3.111
			c-0.254-1.055-0.487-2.121-0.694-3.193c-0.278-1.43-0.496-2.801-0.656-4.096c-0.162-1.299-0.266-2.523-0.316-3.66
			c-0.051-1.139-0.048-2.19,0.007-3.141c0.054-0.952,0.158-1.803,0.311-2.539c0.075-0.368,0.162-0.707,0.26-1.016
			c0.098-0.31,0.206-0.588,0.322-0.836c0.117-0.249,0.242-0.466,0.375-0.652s0.272-0.342,0.417-0.465
			c0.147-0.123,0.298-0.216,0.45-0.279s0.308-0.1,0.465-0.108c0.159-0.01,0.32,0.008,0.484,0.05
			c0.165,0.041,0.333,0.107,0.505,0.196l116.22,60.348c-0.279,0.336-0.538,0.715-0.774,1.133s-0.452,0.876-0.647,1.369
			s-0.37,1.022-0.525,1.586c-0.155,0.563-0.291,1.159-0.407,1.785c-0.16,0.868-0.282,1.796-0.366,2.78
			c-0.083,0.982-0.129,2.021-0.134,3.11c-0.005,1.088,0.03,2.227,0.107,3.411C123.991,179.202,124.109,180.431,124.271,181.701
			L124.271,181.701z"/>
	</g>
	<g>
		<defs>
			<path id="SVGID_8_" d="M285.11,65.067c-0.104-0.291-0.25-0.573-0.43-0.831c-0.178-0.259-0.389-0.492-0.623-0.686
				c-0.232-0.194-0.486-0.348-0.752-0.446L161.59,17.807c-0.318-0.119-0.629-0.202-0.932-0.251
				c-0.301-0.049-0.594-0.065-0.875-0.051c-0.283,0.015-0.555,0.06-0.815,0.133s-0.511,0.174-0.748,0.3
				C106.667,45.282,55.108,72.626,3.554,99.968c0.204-0.107,0.421-0.188,0.652-0.237s0.476-0.068,0.734-0.053
				c0.258,0.015,0.529,0.063,0.813,0.147c0.284,0.085,0.58,0.206,0.888,0.365l119.104,61.877c0.264,0.138,0.523,0.332,0.766,0.566
				c0.243,0.233,0.47,0.509,0.669,0.806c0.199,0.296,0.369,0.615,0.5,0.939c0.13,0.323,0.221,0.651,0.261,0.966
				c0.021,0.169,0.026,0.325,0.017,0.469c-0.01,0.143-0.033,0.271-0.07,0.388c-0.037,0.115-0.087,0.216-0.149,0.301
				c-0.062,0.085-0.136,0.154-0.22,0.208c52.388-33.138,104.774-66.275,157.163-99.411c0.096-0.06,0.182-0.135,0.258-0.223
				c0.074-0.088,0.139-0.19,0.191-0.304c0.053-0.114,0.092-0.239,0.117-0.376s0.039-0.284,0.035-0.441
				c-0.008-0.295-0.068-0.596-0.172-0.887V65.067z"/>
		</defs>
		<clipPath id="SVGID_9_">
			<use xlink:href="#SVGID_8_"  overflow="visible"/>
		</clipPath>
		<linearGradient id="SVGID_10_" gradientUnits="userSpaceOnUse" x1="0" y1="107.6724" x2="286.312" y2="107.6724">
			<stop  offset="0" style="stop-color:#FFF33B"/>
			<stop  offset="0.0595" style="stop-color:#FFE029"/>
			<stop  offset="0.1303" style="stop-color:#FFD218"/>
			<stop  offset="0.2032" style="stop-color:#FEC90F"/>
			<stop  offset="0.2809" style="stop-color:#FDC70C"/>
			<stop  offset="0.6685" style="stop-color:#F3903F"/>
			<stop  offset="0.8876" style="stop-color:#ED683C"/>
			<stop  offset="1" style="stop-color:#E93E3A"/>
		</linearGradient>
		<rect y="0.351" clip-path="url(#SVGID_9_)" fill="url(#SVGID_10_)" width="286.312" height="214.643"/>
	</g>
	<g>
		<defs>
			<path id="SVGID_11_" d="M6.641,100.191l119.105,61.877c0.263,0.138,0.522,0.332,0.766,0.565c0.243,0.234,0.47,0.51,0.668,0.806
				c0.199,0.297,0.369,0.616,0.5,0.939c0.13,0.324,0.222,0.652,0.261,0.967c0.039,0.315,0.023,0.588-0.04,0.81
				s-0.172,0.395-0.319,0.51c-0.147,0.116-0.332,0.175-0.545,0.171c-0.214-0.005-0.457-0.072-0.72-0.21L7.465,104.407
				c-0.17-0.089-0.338-0.155-0.5-0.197c-0.163-0.042-0.323-0.061-0.48-0.052c-0.156,0.009-0.31,0.044-0.46,0.107
				c-0.151,0.063-0.299,0.155-0.445,0.277c-0.144,0.122-0.281,0.275-0.412,0.461c-0.13,0.185-0.254,0.401-0.369,0.648
				c-0.114,0.246-0.22,0.523-0.315,0.831c-0.096,0.308-0.181,0.645-0.253,1.011c-0.148,0.732-0.249,1.578-0.298,2.526
				c-0.05,0.947-0.049,1.992,0.005,3.127c0.054,1.131,0.162,2.35,0.326,3.643c0.165,1.291,0.385,2.654,0.666,4.08
				c0.208,1.068,0.443,2.131,0.699,3.18s0.533,2.084,0.829,3.1c0.295,1.014,0.607,2.008,0.935,2.975
				c0.326,0.963,0.667,1.9,1.018,2.803c0.349,0.898,0.708,1.762,1.073,2.578c0.365,0.818,0.734,1.59,1.102,2.309
				s0.735,1.383,1.093,1.984c0.359,0.604,0.71,1.142,1.047,1.608c0.227,0.314,0.443,0.597,0.651,0.847
				c0.208,0.252,0.407,0.472,0.599,0.666c0.192,0.193,0.377,0.358,0.556,0.5c0.179,0.142,0.352,0.259,0.52,0.354l116.587,65.337
				c0.257,0.145,0.51,0.342,0.747,0.576c0.236,0.234,0.457,0.504,0.65,0.793c0.193,0.289,0.358,0.598,0.484,0.908
				s0.214,0.623,0.25,0.92c0.037,0.296,0.02,0.55-0.042,0.753c-0.063,0.204-0.17,0.358-0.314,0.457
				c-0.144,0.1-0.326,0.143-0.534,0.126c-0.209-0.018-0.446-0.096-0.703-0.24L15.821,147.761c-0.374-0.211-0.75-0.47-1.126-0.77
				c-0.375-0.299-0.75-0.64-1.121-1.014c-0.371-0.373-0.737-0.781-1.097-1.216s-0.713-0.896-1.056-1.378
				c-0.346-0.483-0.686-0.989-1.018-1.516c-0.333-0.525-0.659-1.072-0.979-1.636c-0.32-0.564-0.634-1.148-0.941-1.748
				s-0.608-1.215-0.904-1.848c-0.588-1.264-1.154-2.59-1.691-3.967c-0.538-1.377-1.046-2.805-1.52-4.268
				c-0.474-1.467-0.912-2.969-1.31-4.492c-0.398-1.527-0.755-3.076-1.064-4.635c-0.231-1.17-0.426-2.303-0.588-3.398
				c-0.161-1.096-0.288-2.15-0.381-3.162c-0.093-1.014-0.151-1.98-0.177-2.9c-0.026-0.92-0.018-1.792,0.022-2.609
				c0.043-0.816,0.117-1.581,0.224-2.287c0.107-0.707,0.249-1.355,0.425-1.938c0.177-0.583,0.39-1.1,0.641-1.544
				c0.251-0.444,0.541-0.815,0.871-1.106c0.218-0.193,0.458-0.347,0.718-0.458c0.261-0.111,0.543-0.179,0.846-0.198
				c0.302-0.019,0.625,0.011,0.966,0.095c0.341,0.085,0.702,0.223,1.081,0.419L6.641,100.191z"/>
		</defs>
		<clipPath id="SVGID_12_">
			<use xlink:href="#SVGID_11_"  overflow="visible"/>
		</clipPath>
		<linearGradient id="SVGID_13_" gradientUnits="userSpaceOnUse" x1="-0.2969" y1="107.6724" x2="286.0151" y2="107.6724">
			<stop  offset="0" style="stop-color:#FFF33B"/>
			<stop  offset="0.0595" style="stop-color:#FFE029"/>
			<stop  offset="0.1303" style="stop-color:#FFD218"/>
			<stop  offset="0.2032" style="stop-color:#FEC90F"/>
			<stop  offset="0.2809" style="stop-color:#FDC70C"/>
			<stop  offset="0.6685" style="stop-color:#F3903F"/>
			<stop  offset="0.8876" style="stop-color:#ED683C"/>
			<stop  offset="1" style="stop-color:#E93E3A"/>
		</linearGradient>
		<rect x="-0.297" y="0.351" clip-path="url(#SVGID_12_)" fill="url(#SVGID_13_)" width="286.312" height="214.643"/>
	</g>
	<path fill="#FFFFFF" d="M123.741,186.515c0.216,1.691,0.498,3.38,0.837,5.047c0.339,1.664,0.737,3.31,1.187,4.919
		c0.449,1.607,0.949,3.181,1.495,4.703c0.545,1.521,1.136,2.994,1.765,4.401c0.185,0.41,0.373,0.816,0.564,1.217
		c0.191,0.4,0.387,0.795,0.585,1.184c0.199,0.389,0.4,0.771,0.606,1.148s0.415,0.747,0.628,1.111l-113.99-63.407
		c-0.17-0.096-0.344-0.213-0.523-0.354c-0.18-0.142-0.366-0.308-0.559-0.502c-0.193-0.193-0.393-0.414-0.602-0.666
		c-0.208-0.251-0.426-0.532-0.653-0.849c-0.338-0.469-0.69-1.01-1.05-1.613c-0.36-0.604-0.728-1.27-1.096-1.99
		c-0.369-0.721-0.739-1.496-1.104-2.316c-0.365-0.82-0.725-1.686-1.074-2.588c-0.35-0.904-0.69-1.844-1.017-2.813
		s-0.638-1.967-0.932-2.984c-0.294-1.02-0.57-2.059-0.825-3.111c-0.254-1.055-0.487-2.121-0.694-3.193
		c-0.278-1.43-0.496-2.801-0.656-4.096c-0.162-1.299-0.266-2.523-0.316-3.66c-0.051-1.139-0.048-2.19,0.007-3.142
		c0.054-0.951,0.158-1.803,0.311-2.539c0.075-0.367,0.162-0.707,0.26-1.016c0.098-0.31,0.206-0.587,0.322-0.835
		c0.117-0.25,0.242-0.466,0.375-0.653s0.272-0.342,0.417-0.465c0.147-0.123,0.298-0.216,0.45-0.279s0.308-0.1,0.465-0.108
		c0.159-0.01,0.32,0.008,0.484,0.05c0.165,0.041,0.333,0.107,0.505,0.196l116.22,60.348c-0.279,0.336-0.538,0.715-0.774,1.133
		s-0.452,0.876-0.647,1.369s-0.37,1.022-0.525,1.586c-0.155,0.563-0.291,1.159-0.407,1.785c-0.16,0.868-0.282,1.796-0.366,2.78
		c-0.083,0.982-0.129,2.021-0.134,3.11c-0.005,1.088,0.03,2.227,0.107,3.411C123.461,184.016,123.579,185.246,123.741,186.515
		L123.741,186.515z"/>
	<path fill="#E2E3E4" d="M276.883,112.105c-0.178-0.338-0.354-0.68-0.523-1.027c-0.17-0.35-0.338-0.703-0.498-1.064
		c-0.162-0.359-0.32-0.727-0.473-1.097c-0.521-1.273-0.996-2.611-1.416-4.002s-0.785-2.837-1.094-4.321
		c-0.307-1.485-0.557-3.012-0.74-4.562c-0.186-1.554-0.307-3.132-0.357-4.723c-0.035-1.193-0.031-2.353,0.014-3.472
		c0.043-1.121,0.127-2.202,0.248-3.24c0.121-1.039,0.279-2.033,0.473-2.979c0.195-0.948,0.424-1.846,0.686-2.69
		c0.191-0.609,0.398-1.192,0.625-1.746c0.225-0.554,0.467-1.077,0.725-1.568c0.262-0.492,0.539-0.951,0.834-1.375
		c0.297-0.425,0.611-0.813,0.943-1.165l-150.196,94.58c-0.28,0.337-0.538,0.715-0.775,1.134c-0.236,0.417-0.452,0.875-0.647,1.368
		s-0.37,1.022-0.525,1.586c-0.155,0.563-0.291,1.159-0.408,1.786c-0.16,0.867-0.282,1.796-0.366,2.779
		c-0.084,0.982-0.129,2.021-0.134,3.11c-0.005,1.088,0.03,2.227,0.106,3.411c0.077,1.183,0.195,2.411,0.356,3.682
		c0.216,1.692,0.498,3.38,0.837,5.047c0.339,1.665,0.737,3.31,1.187,4.92c0.449,1.607,0.949,3.181,1.495,4.703
		c0.545,1.521,1.136,2.993,1.765,4.4c0.185,0.411,0.373,0.817,0.564,1.218c0.191,0.399,0.387,0.794,0.585,1.183
		c0.199,0.39,0.4,0.772,0.606,1.148c0.206,0.377,0.415,0.747,0.628,1.112l146.028-97.147c-0.188-0.324-0.371-0.654-0.551-0.99
		L276.883,112.105z"/>
</g>
</svg>
