<?xml version="1.0" encoding="utf-8"?>
<!-- Generator: Adobe Illustrator 16.0.0, SVG Export Plug-In . SVG Version: 6.00 Build 0)  -->
<!DOCTYPE svg PUBLIC "-//W3C//DTD SVG 1.1//EN" "http://www.w3.org/Graphics/SVG/1.1/DTD/svg11.dtd">
<svg version="1.1" id="Warstwa_2" xmlns="http://www.w3.org/2000/svg" xmlns:xlink="http://www.w3.org/1999/xlink" x="0px" y="0px"
	 width="286.312px" height="215.344px" viewBox="0 0 286.312 215.344" enable-background="new 0 0 286.312 215.344"
	 xml:space="preserve">
<g>
	<defs>
		<path id="SVGID_1_" d="M157.644,201.112c-0.165-0.063-0.638-0.566-1.051-1.123c-0.604-0.809-0.909-1.102-1.554-1.479
			c-0.985-0.578-1.39-0.992-1.648-1.688c-0.293-0.791-0.263-2.256,0.066-3.221c0.183-0.535,0.222-0.787,0.127-0.818
			c-0.238-0.08-0.613-0.541-0.908-1.119c-0.279-0.547-0.289-0.654-0.363-4.48c-0.09-4.547,0.131-8.824,0.622-12.105
			c0.88-5.861,1.004-6.971,1.004-8.9c0-2.441-0.27-10.1-0.412-11.77c-0.026-0.297-0.083-1.021-0.128-1.613
			c-0.044-0.59-0.099-1.285-0.122-1.541c-0.043-0.488-0.257-3.158-0.358-4.492c-0.032-0.428-0.11-1.207-0.174-1.734
			c-0.063-0.523-0.198-1.734-0.302-2.686c-0.104-0.955-0.212-1.922-0.24-2.152c-0.028-0.229-0.137-1.225-0.239-2.209
			c-0.103-0.986-0.21-1.98-0.24-2.211c-0.057-0.447-0.302-2.838-0.645-6.273c-0.149-1.504-0.643-4.607-0.968-6.094
			c-0.42-1.92-0.973-3.799-1.188-4.038c-0.048-0.054-0.122,1.397-0.166,3.226c-0.166,6.998-0.469,16.156-0.759,23.037
			c-0.189,4.475-0.251,15.244-0.097,16.852c0.079,0.82,0.282,3.264,0.367,4.416c0.038,0.525,0.177,1.467,0.307,2.092l1.062,5.08
			c1.31,6.264,1.345,6.852,0.828,13.797c-0.237,3.186-0.253,3.295-0.536,3.549l-0.291,0.264l0.302,0.445
			c0.413,0.607,0.455,0.844,0.389,2.174c-0.093,1.891-0.613,2.791-1.708,2.955c-0.793,0.119-0.897,0.25-1.063,1.314
			c-0.17,1.1-0.256,1.33-0.551,1.488c-0.118,0.063-0.986,0.287-1.928,0.496c-1.623,0.361-1.873,0.385-4.7,0.43l-2.987,0.047
			l-0.5-0.43c-0.586-0.506-0.874-1.301-0.874-2.422c0-0.627,0.064-0.814,0.617-1.773c1.173-2.033,2.249-4.273,2.124-4.422
			c-0.064-0.078-0.532-0.166-1.041-0.197c-1.826-0.113-3.151-0.822-3.295-1.768c-0.035-0.229-0.148-2.057-0.252-4.061
			c-0.104-2.006-0.348-6.604-0.542-10.217c-0.195-3.613-0.462-8.641-0.595-11.172c-0.272-5.225-0.319-5.893-0.968-13.859
			c-0.26-3.188-0.528-6.119-0.597-6.512c-0.249-1.432-1.622-7.258-2.141-9.082c-0.579-2.039-1.499-6.502-2.758-13.381
			c-0.317-1.736-0.305-1.705-0.745-1.793c-0.613-0.119-1.018-0.307-1.093-0.503c-0.076-0.2,0.081-1.667,0.351-3.261
			c0.094-0.559,0.282-1.742,0.419-2.629c0.135-0.887,0.269-1.754,0.297-1.928c0.033-0.211-0.028-0.387-0.187-0.529
			c-0.394-0.357-1.273-1.769-2.521-4.045c-1.4-2.556-1.379-2.464-1.769-7.597c-0.619-8.14-0.85-10.892-0.963-11.486
			c-0.227-1.184-0.479-5.627-0.555-9.783c-0.084-4.606-0.141-3.948,1.026-11.826c0.131-0.889,0.349-2.366,0.484-3.286
			c0.924-6.305,1.304-8.041,2.104-9.632c0.624-1.239,1.342-1.724,4.053-2.736c3.41-1.271,9.144-3.67,9.869-4.127
			c0.28-0.178,0.646-0.618,1.007-1.211c0.312-0.513,1.048-1.463,1.638-2.11c0.589-0.648,1.14-1.348,1.224-1.555
			c0.083-0.205,0.185-1.141,0.225-2.077l0.073-1.702l-0.476-0.737c-0.263-0.405-0.529-0.932-0.594-1.171
			c-0.083-0.307-0.27-0.541-0.639-0.802c-0.641-0.451-1.118-1.059-1.206-1.534c-0.091-0.491-0.288-2.107-0.372-3.046
			c-0.198-2.229-0.284-2.849-0.454-3.284c-0.363-0.929-0.204-5.294,0.244-6.752c0.176-0.571,0.371-0.823,1.499-1.941
			c0.714-0.707,1.696-1.554,2.183-1.882c0.74-0.501,0.972-0.597,1.431-0.597c0.346,0,0.763-0.109,1.133-0.298
			c1.798-0.909,3.227-1.234,4.278-0.97c0.376,0.095,0.98,0.206,1.342,0.249c1.248,0.145,2.672,0.438,3.025,0.619
			c0.466,0.241,3.477,3.187,3.818,3.735c0.29,0.467,0.287,0.422,0.355,5.813l0.03,2.399l0.35,0.506l0.351,0.508l-0.146,1.859
			c-0.228,2.896-0.317,3.195-1.395,4.636c-0.344,0.46-0.66,0.998-0.702,1.195c-0.042,0.196,0.007,0.842,0.109,1.434
			c0.152,0.882,0.287,1.246,0.749,2.022c0.634,1.065,1.632,2.196,2.565,2.906c0.756,0.575,4.676,2.313,6.154,2.728l2.119,0.592
			c6.496,1.807,6.658,1.863,7.356,2.562c0.513,0.512,0.583,0.654,0.817,1.657c0.639,2.725,1.043,6.963,1.682,17.642
			c0.476,7.96,0.502,8.903,0.451,16.012c-0.054,7.396-0.078,7.791-0.696,11.709c-0.824,5.215-1.666,7.818-3.315,10.247
			c-0.321,0.475-0.896,1.347-1.275,1.937l-0.688,1.072l0.314,3.109c0.172,1.712,0.313,3.714,0.313,4.454v1.344h-0.354
			c-0.193,0-0.612,0.058-0.932,0.125l-0.58,0.125l0.021,2.295c0.04,4.223-0.142,8.066-0.487,10.301
			c-0.173,1.117-0.365,2.783-0.429,3.703c-0.149,2.195-0.278,3.674-0.701,8.066c-0.488,5.066-0.585,7.801-0.684,19.295
			c-0.112,13.139-0.112,13.686,0.01,21.455c0.08,5.113,0.071,6.701-0.039,6.908c-0.176,0.328-0.846,0.625-2.308,1.025
			c-1.81,0.494-1.824,0.703-0.203,2.971c1.352,1.889,2,3.127,2.104,4.012c0.09,0.754-0.05,0.982-1.059,1.744
			c-1.035,0.781-1.605,0.998-3.13,1.201C161.985,201.266,158.114,201.292,157.644,201.112L157.644,201.112z M155.059,60.317
			c0.172-0.788,0.392-1.918,0.489-2.509c0.451-2.73,1.517-10.355,1.457-10.416c-0.017-0.016-0.537,0.729-1.159,1.654
			c-0.621,0.925-1.255,1.781-1.409,1.901c-0.272,0.216-0.288,0.214-0.776-0.093c-0.273-0.172-0.933-0.707-1.466-1.188l-0.968-0.876
			l-0.931,1.023l-0.932,1.023l0.732,1.057c0.402,0.582,0.835,1.316,0.961,1.634s0.562,1.275,0.968,2.13
			c1.084,2.277,2.095,4.673,2.335,5.532c0.116,0.414,0.251,0.71,0.299,0.657S154.887,61.106,155.059,60.317L155.059,60.317z
			 M145.218,59.114c0-0.708,0.499-3.188,1.031-5.122c0.236-0.858,0.498-1.908,0.581-2.335c0.151-0.771,0.151-0.777-0.199-1.286
			c-0.193-0.28-0.407-0.671-0.476-0.868c-0.069-0.196-0.164-0.356-0.212-0.356s-0.695,0.675-1.439,1.499
			c-0.828,0.918-1.426,1.485-1.541,1.463c-0.104-0.02-0.331-0.322-0.506-0.672c-0.383-0.766-0.587-1.003-0.587-0.683
			c0,0.562,2.04,6.643,2.819,8.404C145.017,59.897,145.218,59.879,145.218,59.114L145.218,59.114z M146.03,48.37
			c0.606-0.723,1.137-1.441,1.178-1.597c0.063-0.244-0.292-0.647-2.714-3.069c-1.533-1.533-2.825-2.764-2.873-2.734
			s-0.124,0.27-0.168,0.534c-0.056,0.331-0.264,0.693-0.669,1.164c-0.676,0.787-0.676,0.512,0.011,3.134
			c0.251,0.952,0.517,2.054,0.594,2.448c0.076,0.395,0.443,1.354,0.815,2.133l0.679,1.414l1.021-1.056
			C144.465,50.16,145.423,49.092,146.03,48.37L146.03,48.37z M155.452,49.146c1.59-2.29,1.661-2.465,1.885-4.6
			c0.271-2.58,0.277-2.521-0.351-3.287c-0.296-0.361-0.591-0.656-0.656-0.656s-1.342,1.16-2.837,2.578s-2.933,2.771-3.193,3.005
			c-0.461,0.414-0.47,0.437-0.299,0.756c0.195,0.367,2.625,2.789,3.461,3.452c0.296,0.234,0.612,0.413,0.705,0.396
			C154.257,50.773,154.836,50.034,155.452,49.146L155.452,49.146z M210.935,193.167c-1.302-0.164-3.804-0.682-4.045-0.838
			c-0.153-0.1-0.389-0.428-0.521-0.729c-0.219-0.498-0.229-0.611-0.093-1.213c0.143-0.643,0.229-0.748,2.435-2.998
			c2.267-2.311,3.396-3.719,3.967-4.941c0.248-0.533,0.287-0.793,0.287-1.945c0.001-0.922-0.044-1.365-0.148-1.447
			c-0.082-0.064-0.552-0.129-1.045-0.141c-0.493-0.014-0.933-0.061-0.976-0.105c-0.136-0.141-0.574-4.59-0.746-7.572
			c-0.09-1.555-0.192-2.873-0.228-2.93c-0.058-0.096-0.283-2.711-0.734-8.58c-0.104-1.322-0.394-3.643-0.651-5.197
			c-0.257-1.543-0.526-3.346-0.599-4.002c-0.265-2.359-0.408-2.932-1.877-7.467c-1.614-4.99-4.098-12.309-4.23-12.465
			c-0.047-0.053-0.119,0.969-0.164,2.271s-0.132,2.877-0.194,3.502c-0.063,0.623-0.167,1.754-0.232,2.51
			c-0.064,0.756-0.257,2.824-0.428,4.6c-0.171,1.773-0.354,4.623-0.409,6.334c-0.233,7.256-0.365,11.635-0.487,16.143
			c-0.071,2.637-0.177,5.004-0.233,5.258c-0.058,0.254-0.194,0.518-0.304,0.582c-0.632,0.377-0.674,0.471-1.078,2.396
			c-0.221,1.049-0.402,2.072-0.405,2.275c-0.003,0.457-0.235,0.674-1.078,1.002c-0.36,0.141-0.954,0.4-1.314,0.578
			c-0.634,0.309-0.728,0.32-2.688,0.32c-1.402,0-2.185-0.051-2.525-0.164c-0.461-0.152-0.538-0.145-1.136,0.131
			c-0.351,0.162-1.124,0.658-1.715,1.102c-1.865,1.4-2.083,1.471-5.965,1.92c-2.766,0.32-3.419,0.285-4.939-0.258
			c-0.683-0.244-1.094-0.93-1.135-1.891c-0.028-0.668-0.015-0.701,0.45-1.105c0.457-0.402,3.98-2.186,6.422-3.254
			c0.642-0.281,1.3-0.615,1.465-0.744c0.164-0.129,0.655-0.756,1.094-1.391c0.438-0.637,0.989-1.396,1.224-1.689
			c0.233-0.293,0.411-0.619,0.394-0.725c-0.017-0.107,0.08-0.672,0.218-1.26c1.169-4.979,1.554-6.742,1.716-7.879
			c0.244-1.689,0.99-7.75,1.092-8.84c0.085-0.934-0.213-5.797-0.47-7.646c-0.092-0.658-0.416-2.971-0.721-5.139
			c-0.306-2.168-0.77-5.502-1.034-7.408c-0.709-5.135-1.796-11.509-2.609-15.293l-0.718-3.346l-0.254-3.942
			c-0.259-4.015-0.363-8.942-0.202-9.52c0.082-0.293,0.021-0.369-0.724-0.911c-1.271-0.924-2.658-2.926-3.208-4.624l-0.31-0.956
			l-0.113-7.289c-0.167-10.688,0.07-16.162,0.989-22.701c0.948-6.75,1.145-7.546,2.063-8.394c0.659-0.606,1.458-1.135,4.305-2.845
			c2.626-1.578,3.47-2.273,4.898-4.03c0.936-1.151,1.141-1.632,1.148-2.665c0.005-0.7-0.196-1.201-0.809-2.02
			c-0.525-0.702-1.148-1.93-1.298-2.553c-0.041-0.173-0.116-0.368-0.166-0.435c-0.265-0.345-0.62-2.101-0.945-4.659
			c-0.198-1.577-0.447-3.405-0.552-4.063c-0.273-1.73-0.254-3.279,0.059-4.262c0.417-1.318,1.75-2.86,3.256-3.769
			c1.085-0.653,1.782-0.78,4.599-0.841l2.527-0.054l0.997,0.436c2.367,1.035,2.622,1.184,3.33,1.941
			c1.556,1.661,1.876,2.437,2.037,4.914c0.083,1.273,0.16,1.76,0.298,1.897c0.151,0.151,0.177,0.437,0.139,1.574
			c-0.054,1.686-0.315,2.679-1.156,4.409l-0.604,1.24v2.481l1.285,1.354c0.707,0.743,1.634,1.778,2.063,2.301l0.778,0.948
			l3.196,0.979c5.055,1.547,5.696,1.77,7.169,2.492c1.197,0.587,1.455,0.766,1.863,1.296c0.259,0.339,0.559,0.804,0.663,1.034
			c0.275,0.602,1.467,6.771,1.74,9.021c0.695,5.697,1.225,10.822,1.269,12.247c0.026,0.888,0.105,2.004,0.177,2.481
			c0.133,0.914,0.172,2.864,0.063,3.223c-0.036,0.115-0.176,1.063-0.312,2.105c-0.136,1.042-0.333,2.062-0.438,2.266
			c-0.443,0.855-4.582,6.99-5.418,8.026l-0.385,0.478l0.07,1.194c0.039,0.657,0.373,3.266,0.742,5.795
			c0.585,4.011,0.684,4.968,0.779,7.468c0.06,1.577,0.233,3.883,0.385,5.126l0.277,2.259l-0.455,0.179
			c-0.532,0.208-0.605,0.403-0.811,2.159c-0.248,2.109-0.085,4.092,0.476,5.754c0.122,0.363,0.301,1.145,0.398,1.732
			c0.563,3.41,1.816,10.707,2.166,12.602c0.223,1.215,0.596,3.367,0.827,4.779c0.23,1.414,0.579,3.107,0.774,3.764
			c0.865,2.92,0.851,2.797,0.849,6.891c-0.003,2.059-0.054,6.189-0.115,9.18s-0.12,8.26-0.127,11.709l-0.018,6.273l0.371,1.135
			c0.286,0.883,0.399,1.521,0.507,2.867c0.076,0.953,0.101,1.984,0.055,2.291c-0.109,0.717-0.612,1.408-1.414,1.943
			c-0.348,0.232-0.75,0.508-0.896,0.613c-0.146,0.107-0.481,0.203-0.748,0.219c-0.455,0.023-0.534,0.086-1.247,0.988
			c-0.919,1.16-1.874,2.105-2.52,2.488c-0.53,0.314-2.15,0.865-3.873,1.318c-1.123,0.293-2.563,0.438-3.356,0.34L210.935,193.167z
			 M106.987,188.032c-0.165-0.029-1.078-0.16-2.031-0.291c-1.545-0.211-1.842-0.291-2.735-0.736
			c-0.553-0.275-1.547-0.898-2.211-1.385c-1.522-1.113-1.506-1.105-3.313-1.623c-1.82-0.52-2.688-0.902-3.157-1.393
			c-0.335-0.35-0.355-0.43-0.394-1.549c-0.044-1.26,0.148-2.225,0.588-2.939c0.127-0.207,0.229-0.408,0.229-0.449
			c0-0.039-0.218-0.109-0.485-0.15c-0.73-0.117-0.811-0.252-0.683-1.139c0.137-0.963,0.027-2.201-0.291-3.258
			c-0.239-0.793-0.246-0.992-0.169-4.9c0.059-2.936,0.029-5.254-0.104-8.313c-0.18-4.121-0.277-20.057-0.124-20.305
			c0.037-0.059,0.009-2.383-0.062-5.164c-0.1-3.883-0.196-5.672-0.423-7.697c-0.16-1.453-0.32-2.924-0.354-3.271
			s-0.302-1.605-0.595-2.797c-0.293-1.19-0.532-2.257-0.532-2.368c-0.001-0.111-0.049-0.231-0.108-0.269
			c-0.062-0.037-0.083,0.129-0.051,0.381c0.032,0.248-0.056,1.066-0.195,1.823c-0.518,2.81-0.604,3.304-0.72,4.062
			c-0.064,0.428-0.168,1.072-0.229,1.434c-0.149,0.893-1.269,5.221-2.361,9.141c-0.495,1.775-0.979,3.523-1.073,3.885
			c-0.097,0.361-0.759,2.807-1.473,5.436c-1.77,6.514-1.921,7.09-2.031,7.707c-0.652,3.635-0.986,5.844-1.146,7.559
			c-0.106,1.133-0.262,2.73-0.348,3.553c-0.084,0.82-0.16,2.945-0.168,4.719c-0.007,1.775-0.049,4.732-0.092,6.572
			c-0.071,3.066-0.097,3.357-0.299,3.5c-0.196,0.141-0.221,0.338-0.221,1.771c0,0.988-0.054,1.715-0.138,1.877
			c-0.076,0.143-0.36,0.475-0.631,0.738c-0.271,0.262-0.885,0.916-1.363,1.455l-0.871,0.979l-0.63-0.021
			c-0.615-0.021-0.651-0.006-1.382,0.672c-1.169,1.082-2.32,1.838-3.027,1.988c-0.691,0.15-2.221,0.082-4.085-0.178
			c-0.657-0.092-1.503-0.193-1.877-0.229c-1.102-0.096-1.444-0.297-1.761-1.033c-0.215-0.498-0.26-0.773-0.21-1.266
			c0.077-0.746,0.279-1.137,1.157-2.238c0.362-0.453,0.9-1.133,1.196-1.508s0.986-1.213,1.534-1.861
			c0.968-1.148,1.768-2.455,1.634-2.672c-0.036-0.059-0.363-0.174-0.727-0.254c-0.363-0.082-0.678-0.18-0.699-0.219
			c-0.021-0.037,0.032-0.74,0.119-1.563c0.203-1.922,0.251-11.307,0.073-14.398c-0.072-1.246-0.166-4.203-0.209-6.57
			c-0.081-4.518-0.096-4.223,0.545-10.514c0.514-5.047,0.655-7.354,0.771-12.545c0.066-2.994,0.243-7.205,0.369-8.75l0.06-0.744
			l-0.394-0.165c-0.217-0.091-0.842-0.507-1.39-0.927c-1.178-0.9-1.609-1.615-1.818-3.004c-0.145-0.957-0.167-3.845-0.043-5.541
			l0.08-1.088l-0.489-0.078c-0.269-0.043-0.678-0.17-0.909-0.278l-0.42-0.2v-6.34c0-3.487-0.034-9.513-0.076-13.39
			c-0.074-6.825,0.043-13.281,0.315-17.325c0.062-0.92,0.143-2.345,0.179-3.166c0.14-3.117,0.322-5.393,0.609-7.587
			c0.163-1.249,0.402-3.131,0.531-4.183c0.365-2.969,0.578-4.351,0.713-4.601c0.235-0.441,1.906-1.425,6.689-3.939
			c3.655-1.92,4.702-2.513,6.931-3.92c3.136-1.981,3.426-2.175,3.614-2.39c0.101-0.115,0.247-0.719,0.335-1.375
			c0.13-0.969,0.13-1.247-0.001-1.613c-0.222-0.623-0.582-1.1-0.831-1.1c-0.118,0-0.469-0.33-0.792-0.747
			c-0.473-0.608-0.644-0.968-0.921-1.941c-0.447-1.57-0.571-3.26-0.274-3.713c0.243-0.371,0.258-0.506,0.409-3.814
			c0.147-3.233,0.341-3.926,1.495-5.342c0.616-0.757,1.856-1.736,2.325-1.836c0.174-0.037,0.827-0.259,1.451-0.491l1.135-0.425
			l1.972,0.069c3.555,0.125,4.706,0.568,6.7,2.582c1.653,1.668,1.952,2.244,1.958,3.765c0.002,0.595-0.068,1.809-0.156,2.699
			c-0.158,1.601-0.157,1.623,0.106,2.07c0.255,0.432,0.264,0.53,0.185,2.146c-0.131,2.659-0.563,4.143-1.207,4.143
			c-0.32,0-0.441,0.294-0.643,1.553c-0.232,1.467-0.291,2.81-0.14,3.267c0.153,0.466,1.016,1.311,2.455,2.408
			c0.767,0.584,1.215,0.779,5.317,2.313c2.464,0.922,5.527,2.153,6.809,2.736c1.96,0.894,2.361,1.12,2.548,1.439
			c0.287,0.49,1.829,5.857,1.93,6.716c0.076,0.647,0.312,2.37,0.547,4.002c0.065,0.461,0.146,1.052,0.178,1.314
			c0.031,0.264,0.139,1.043,0.237,1.732c0.1,0.69,0.234,1.632,0.299,2.091c0.319,2.275,0.671,9.341,0.896,17.982
			c0.1,3.844,0.235,8.872,0.301,11.172s0.154,6.183,0.197,8.628l0.077,4.447l-0.348,0.133c-0.19,0.074-0.66,0.112-1.042,0.086
			c-0.545-0.039-0.715-0.008-0.791,0.139c-0.053,0.104-0.131,0.795-0.174,1.537c-0.053,0.91-0.157,1.551-0.32,1.973
			c-0.133,0.341-0.342,1.158-0.466,1.814c-0.412,2.192-0.448,2.281-1.446,3.516c-1.259,1.559-1.619,1.881-3.277,2.938
			c-0.788,0.5-1.476,0.953-1.526,1.004c-0.051,0.049-0.028,1.607,0.051,3.459c0.177,4.141-0.027,15.273-0.323,17.563
			c-0.099,0.766-0.262,2.039-0.362,2.828c-0.28,2.197-0.503,3.695-0.764,5.137c-0.131,0.723-0.32,1.826-0.421,2.449
			c-0.1,0.625-0.263,1.566-0.359,2.092s-0.228,1.439-0.291,2.031c-0.126,1.174-0.396,3.404-0.67,5.555
			c-0.205,1.604-0.39,5.004-0.508,9.367l-0.084,3.094l-0.566,0.166c-0.627,0.182-0.627,0.182-0.43,0.555
			c0.617,1.158,2.947,3.211,6.068,5.344c1.655,1.131,2.702,1.963,3.032,2.408c0.146,0.197,0.261,0.584,0.294,0.984
			c0.051,0.619,0.03,0.684-0.321,1.012c-0.457,0.426-2.035,1.047-3.106,1.221C109.462,188.022,107.446,188.114,106.987,188.032
			L106.987,188.032z M270.32,182.959c-1.024-0.326-1.255-0.355-2.362-0.316c-0.772,0.029-1.292-0.002-1.397-0.084
			c-0.092-0.072-0.2-0.424-0.242-0.787c-0.147-1.297-0.295-2.074-0.416-2.193c-0.07-0.072-0.122-0.748-0.122-1.594v-1.471h-0.415
			c-0.663,0-0.794-0.32-0.864-2.117c-0.049-1.252-0.122-1.73-0.415-2.66c-0.424-1.348-0.449-1.904-0.116-2.635
			c0.136-0.299,0.28-0.756,0.32-1.016c0.073-0.461,0.054-0.496-0.841-1.428l-0.916-0.955l0.072-1.973
			c0.041-1.084,0.121-2.299,0.179-2.699c0.07-0.49,0.059-1.008-0.038-1.572c-0.119-0.699-0.22-0.928-0.586-1.334
			c-0.243-0.268-0.445-0.504-0.45-0.52c-0.01-0.031-0.097-0.813-0.453-4.061c-0.135-1.232-0.275-2.416-0.312-2.629
			c-0.037-0.213-0.116-1.053-0.18-1.865c-0.107-1.412-0.133-1.514-0.581-2.271c-0.643-1.088-0.568-0.736-0.907-4.316
			c-0.1-1.025-0.417-3.025-0.713-4.48c-0.596-2.922-0.745-3.859-1.323-8.363c-0.31-2.416-0.518-3.559-0.939-5.139
			c-0.598-2.242-1.871-7.567-1.875-7.834c-0.003-0.321-0.204-0.525-0.376-0.383c-0.197,0.162-0.071,5.117,0.206,8.098
			c0.508,5.451,0.643,7.148,0.76,9.5c0.218,4.389,0.376,6.73,0.49,7.227c0.06,0.264,0.374,1.447,0.698,2.629
			c0.437,1.596,0.638,2.604,0.777,3.906c0.104,0.963,0.384,3.031,0.622,4.598c0.416,2.73,0.431,2.941,0.37,5.117l-0.065,2.27
			l0.484,1.494l0.481,1.494l-0.051,1.852c-0.041,1.596-0.083,1.92-0.305,2.344c-0.138,0.268-0.232,0.59-0.206,0.715
			s0.133,0.594,0.24,1.043c0.169,0.715,0.178,1.164,0.067,3.645c-0.069,1.555-0.091,2.957-0.049,3.117
			c0.063,0.234-0.005,0.361-0.351,0.658l-0.429,0.367l-0.179,2.293c-0.14,1.77-0.236,2.42-0.427,2.85l-0.246,0.557l-1.557-0.041
			c-1.378-0.039-1.563-0.02-1.62,0.158c-0.036,0.111-0.251,0.367-0.481,0.568l-0.416,0.367h-3.143c-1.728,0-3.884-0.037-4.789-0.08
			l-1.645-0.078l-0.229-0.369c-0.19-0.309-0.217-0.5-0.151-1.146c0.121-1.193,0.568-1.967,1.685-2.9
			c1.041-0.871,2.677-2.521,2.881-2.908c0.082-0.154,0.104-0.568,0.061-1.094c-0.063-0.742-0.104-0.854-0.332-0.912
			c-0.784-0.197-0.969-2.602-0.467-6.066l0.184-1.277l-0.472-0.814c-0.262-0.447-0.733-1.541-1.049-2.428l-0.573-1.613l0.027-1.977
			l0.028-1.977l-0.619-2.146c-0.588-2.043-0.618-2.217-0.633-3.639c-0.01-1.121,0.039-1.654,0.194-2.141
			c0.347-1.084,0.285-1.566-0.318-2.488l-0.526-0.807l-0.313-2.271c-0.171-1.246-0.418-3.021-0.549-3.941s-0.344-2.641-0.472-3.824
			c-0.131-1.182-0.373-2.873-0.54-3.758c-0.436-2.295-1.481-6.563-1.73-7.055c-0.116-0.23-0.465-1.627-0.776-3.107
			c-0.538-2.555-1.124-5.146-1.386-6.123c-0.097-0.363-0.174-0.448-0.415-0.448c-0.161,0-0.396,0.12-0.521,0.27l-0.507,0.602
			c-0.225,0.267-0.396,0.341-0.853,0.366c-0.438,0.023-0.651,0.108-0.897,0.355c-1.051,1.051-1.324,1.207-2.202,1.256
			c-0.553,0.031-1.093-0.021-1.599-0.16c-0.7-0.188-0.839-0.283-1.619-1.119c-1.352-1.441-1.294-1.275-1.296-3.879
			c0-2.104-0.016-2.265-0.237-2.449c-0.235-0.197-0.239-0.371-0.269-11.729c-0.032-13.093-0.005-13.735,0.998-23.42
			c0.133-1.28,0.341-3.619,0.464-5.196c0.124-1.577,0.306-3.646,0.402-4.6c0.1-0.954,0.211-2.136,0.247-2.629
			c0.444-5.832,0.557-6.523,1.208-7.42c0.488-0.674,3.035-2.941,4.086-3.641c0.542-0.36,1.86-1.183,2.932-1.826
			c2.909-1.753,3.646-2.264,4.592-3.183l0.861-0.838l-0.102-1.303l-0.102-1.303l-0.598-0.548c-0.731-0.672-1.067-1.229-1.166-1.93
			c-0.088-0.627-0.199-0.95-0.734-2.127c-0.779-1.716-1.002-2.811-1.111-5.436c-0.142-3.442,0.088-4.54,1.247-5.968
			c0.278-0.342,0.54-0.757,0.582-0.921c0.142-0.555,0.526-1.032,1.633-2.023c1.308-1.171,1.921-1.47,3.561-1.73
			c1.109-0.177,1.37-0.177,2.922-0.011c2.305,0.247,2.794,0.403,3.464,1.107c0.298,0.312,0.683,0.663,0.854,0.782
			c0.175,0.118,0.809,0.871,1.411,1.673c0.604,0.801,1.141,1.486,1.193,1.524c0.257,0.175,0.695,0.905,0.695,1.156
			c0,0.155,0.09,0.454,0.198,0.664c0.109,0.21,0.327,1.022,0.481,1.805c0.276,1.38,0.279,1.451,0.094,2.359
			c-0.229,1.122-0.905,3.172-1.188,3.606c-0.145,0.218-0.224,0.673-0.272,1.532c-0.065,1.2-0.074,1.229-0.505,1.706
			c-0.688,0.762-0.839,1.041-0.839,1.563c0,0.415,0.074,0.556,0.509,0.972c1.488,1.427,2.435,1.886,7.129,3.466
			c4.408,1.483,9.107,3.223,9.599,3.552c0.692,0.464,1.115,1.251,1.332,2.486c0.461,2.609,0.763,3.677,2.407,8.536
			c2.625,7.757,3.359,10.101,3.508,11.188c0.072,0.54,0.239,2.461,0.371,4.268c0.132,1.808,0.268,3.475,0.304,3.705
			c0.104,0.688-0.173,6.243-0.417,8.363c-0.126,1.085-0.316,2.805-0.423,3.823c-0.482,4.613-1.618,12.945-1.786,13.113
			c-0.036,0.036-0.188,0.129-0.337,0.207c-0.148,0.077-0.26,0.196-0.245,0.265c0.047,0.245-0.211,2.376-0.335,2.755
			c-0.087,0.264-0.294,0.486-0.644,0.691c-0.535,0.313-1.615,1.385-1.615,1.602c0,0.069-0.187,0.332-0.416,0.584
			c-0.289,0.32-0.738,0.598-1.493,0.921l-1.078,0.462v2.097c0.001,6.565,0.737,16.259,1.675,22.054
			c0.574,3.543,0.61,3.697,1.062,4.521c0.435,0.789,1.193,3.068,1.795,5.381c0.475,1.82,0.633,4.635,0.658,11.602
			c0.021,5.451,0.057,6.672,0.233,7.873c0.116,0.783,0.303,2.686,0.417,4.229l0.205,2.809l-0.513,0.227
			c-0.48,0.213-0.515,0.256-0.515,0.699c0,0.436,0.085,0.557,1.105,1.578c0.897,0.896,1.235,1.344,1.796,2.371
			c0.677,1.24,1.015,2.377,0.855,2.877c-0.101,0.318-0.839,0.688-2.014,1.008c-0.945,0.258-1.401,0.301-3.534,0.348l-2.45,0.053
			l-1.135-0.361V182.959z M39.603,182.733c0-0.086-0.116-0.256-0.258-0.379c-0.186-0.162-0.208-0.223-0.08-0.223
			c0.2,0,0.541,0.553,0.417,0.676C39.638,182.85,39.603,182.819,39.603,182.733L39.603,182.733z M58.189,182.454
			c0.046-0.117,0.113-0.184,0.149-0.146c0.037,0.037,0,0.133-0.082,0.215C58.139,182.637,58.125,182.624,58.189,182.454z
			 M28.491,182.375c0-0.068,0.054-0.125,0.119-0.125c0.066,0,0.12,0.023,0.12,0.053s-0.054,0.086-0.12,0.127
			C28.544,182.469,28.491,182.446,28.491,182.375z M49.361,182.409c-0.045-0.043-0.08-1.037-0.08-2.209
			c0-1.924,0.021-2.152,0.225-2.355c0.122-0.123,0.298-0.25,0.388-0.279c0.113-0.039,0.006-0.217-0.344-0.566
			c-0.488-0.492-0.508-0.541-0.508-1.256c0-0.41-0.034-1.396-0.078-2.195l-0.078-1.453h-0.887l-0.91-2.43
			c-0.885-2.355-1.327-4.02-1.445-5.43c-0.642-7.615-0.928-21.037-0.566-26.672c0.366-5.729,0.363-5.477,0.053-6.271
			c-1.927-4.938-2.632-6.656-4.419-10.754c-2.073-4.754-2.502-5.609-3.078-6.152c-0.562-0.527-0.591-0.313-0.42,3.07
			c0.207,4.123,0.096,19.25-0.169,22.975c-0.163,2.293-0.164,2.932-0.006,5.916c0.099,1.84,0.203,3.549,0.234,3.801
			c0.03,0.25,0.14,1.461,0.242,2.689c0.19,2.271,0.248,2.576,0.953,5.1c1.001,3.574,2.087,8.08,2.16,8.963
			c0.086,1.029-0.039,2.266-0.449,4.457l-0.254,1.352l-0.724,0.707l-0.725,0.705l-0.049,1.582c-0.033,1.061-0.103,1.666-0.212,1.832
			c-0.113,0.174-0.132,0.355-0.061,0.604c0.056,0.195,0.112,0.92,0.125,1.607c0.019,1.018,0.063,1.295,0.239,1.488
			c0.12,0.133,0.279,0.361,0.354,0.506c0.132,0.256,0.12,0.266-0.254,0.191c-0.215-0.043-0.431-0.137-0.479-0.207
			c-0.054-0.08-0.089-0.049-0.09,0.08c-0.002,0.188-0.088,0.203-0.749,0.143c-0.41-0.037-1.499-0.063-2.419-0.061l-1.911,0.014
			c-2.494,0.012-3.157-0.014-3.225-0.125c-0.121-0.195-0.3-0.02-0.214,0.211c0.066,0.178,0.051,0.184-0.12,0.045
			c-0.129-0.105-0.325-0.131-0.574-0.076c-0.229,0.051-0.351,0.037-0.309-0.031c0.041-0.064-0.444-0.168-1.149-0.244
			c-1.012-0.109-1.256-0.178-1.43-0.391c-0.114-0.143-0.209-0.355-0.209-0.477s-0.172-0.494-0.383-0.834
			c-0.342-0.549-0.383-0.713-0.388-1.531l-0.006-0.916l0.712-0.895c0.392-0.494,1.022-1.229,1.402-1.633
			c0.797-0.848,0.859-0.982,1.106-2.396c0.241-1.379,0.232-1.953-0.059-3.871c-0.368-2.414-0.521-2.861-1.263-3.693
			c-0.35-0.393-0.699-0.832-0.776-0.975c-0.212-0.396-0.358-3.93-0.32-7.744c0.032-3.246-0.111-5.426-0.563-8.549
			c-0.028-0.201-0.162-1.518-0.298-2.928c-0.136-1.408-0.273-2.725-0.306-2.922c-0.033-0.195-0.109-1.164-0.17-2.15
			c-0.071-1.162-0.213-2.211-0.403-2.986c-0.394-1.602-1.397-5.348-1.462-5.449c-0.027-0.045-0.758-2.709-1.623-5.92l-1.573-5.836
			l-0.019-2.271l-0.02-2.271l-1.624-0.076c-0.894-0.043-1.676-0.109-1.739-0.146c-0.063-0.04-0.618-0.148-1.234-0.244
			c-1.206-0.184-2.108-0.523-2.506-0.943c-0.138-0.146-0.673-0.895-1.19-1.668c-0.774-1.153-1.009-1.618-1.319-2.618
			c-0.338-1.088-0.371-1.323-0.316-2.27l0.06-1.056h-1.03l-0.066-0.508c-0.036-0.278-0.148-1.475-0.251-2.657
			c-0.102-1.184-0.206-2.313-0.233-2.51c-0.026-0.197-0.136-1.165-0.242-2.15c-0.106-0.986-0.21-1.927-0.229-2.09
			c-0.157-1.294-0.204-1.898-0.31-4.004c-0.065-1.313-0.152-2.883-0.192-3.485c-0.103-1.52-0.121-6.58-0.026-7.088
			c0.043-0.23,0.167-1.197,0.276-2.151c0.109-0.953,0.222-1.894,0.249-2.091c0.27-1.884,0.528-8.965,0.531-14.496
			c0.002-2.31,0.178-3.86,0.948-8.325c0.346-2.003,0.356-2.036,0.772-2.397c0.595-0.518,2.349-1.465,4.374-2.36
			c4.902-2.17,10.433-4.938,10.969-5.492c0.38-0.393,0.394-0.442,0.416-1.471c0.021-0.988-0.005-1.115-0.364-1.807
			c-0.467-0.896-1.104-2.608-1.104-2.966c0-0.574-0.241-0.981-0.627-1.059c-0.206-0.04-0.541-0.255-0.743-0.477
			c-0.481-0.526-0.904-2.221-0.902-3.618c0.002-0.882,0.03-0.999,0.282-1.197c0.261-0.206,0.284-0.331,0.363-1.919
			c0.178-3.577,0.409-4.621,1.339-6.02c0.958-1.441,1.173-1.627,2.732-2.373c2.308-1.104,2.381-1.123,3.923-1.039
			c3.229,0.178,5.659,1.037,7.188,2.542c0.697,0.687,1.048,1.341,1.608,3.004c0.365,1.085,0.37,1.133,0.353,3.296
			c-0.02,2.19-0.019,2.194,0.297,2.659c0.356,0.524,0.388,0.917,0.199,2.554c-0.106,0.921-0.165,1.079-0.687,1.834
			c-0.869,1.26-0.996,1.553-1.101,2.56c-0.053,0.512-0.19,1.248-0.305,1.636c-0.315,1.072-0.209,1.71,0.452,2.677
			c0.999,1.461,1.419,1.701,4.027,2.303c0.821,0.188,3.967,1.014,6.989,1.831c5.15,1.394,5.515,1.51,5.795,1.848
			c0.38,0.458,1.365,2.713,2.096,4.796c0.535,1.523,0.574,1.725,0.724,3.644c0.148,1.907,0.286,2.838,0.88,5.914
			c0.267,1.381,1.04,5.955,1.436,8.482c0.138,0.888,0.387,2.323,0.554,3.189c0.299,1.553,0.302,1.638,0.256,6.332l-0.047,4.758
			l-1.156,6.795c-0.636,3.736-1.157,6.811-1.157,6.833s-0.303,0.057-0.672,0.076l-0.673,0.036l0.001,0.657
			c0,0.361,0.04,1.384,0.087,2.27c0.084,1.586-0.075,3.493-0.422,5.019c-0.126,0.558,0.1,2.039,1.548,10.156
			c0.264,1.479,0.563,3.172,0.665,3.764c0.102,0.592,0.266,1.504,0.364,2.031c0.178,0.947,0.317,2.146,0.775,6.631
			c0.131,1.283,0.298,2.787,0.371,3.346c0.2,1.518,0.296,28.334,0.107,29.951c-0.099,0.84-0.287,1.615-0.609,2.504
			c-0.343,0.943-0.467,1.473-0.467,1.982c0,0.385-0.143,1.268-0.317,1.963c-0.3,1.197-0.337,1.273-0.705,1.428
			c-0.367,0.152-0.383,0.184-0.292,0.588c0.054,0.236,0.24,0.719,0.415,1.078c0.301,0.613,0.597,0.92,2.487,2.584
			c0.588,0.518,1.04,1.715,1.04,2.752c0,0.715-0.011,0.742-0.55,1.236c-0.367,0.338-0.702,0.529-1.004,0.578
			c-0.929,0.148-1.716,0.543-2.068,1.037c-0.185,0.258-0.43,0.471-0.544,0.471c-0.113,0-0.271,0.063-0.35,0.143
			c-0.111,0.111-0.144,0.1-0.144-0.061c0-0.236-0.133-0.262-0.335-0.059c-0.107,0.107-0.144,0.109-0.144,0.002
			c0-0.105-0.085-0.107-0.315-0.02c-0.173,0.066-0.343,0.092-0.378,0.057c-0.034-0.035,0.009-0.063,0.096-0.063
			c0.088,0,0.132-0.029,0.097-0.064c-0.034-0.035-0.204-0.01-0.378,0.057c-0.234,0.09-0.315,0.084-0.317-0.025
			c-0.001-0.094-0.044-0.082-0.119,0.033c-0.076,0.113-0.151,0.135-0.208,0.059c-0.122-0.162-1.384-0.188-1.482-0.029
			c-0.055,0.088-0.189,0.082-0.444-0.023c-0.27-0.111-0.46-0.119-0.725-0.027c-0.235,0.084-0.385,0.084-0.433,0.008
			s-0.123-0.076-0.22,0.004c-0.157,0.131-1.123,0.111-1.348-0.027c-0.075-0.047-0.266-0.037-0.423,0.023
			c-0.173,0.066-0.363,0.064-0.486-0.004c-0.128-0.072-0.283-0.068-0.426,0.008c-0.124,0.066-0.266,0.082-0.316,0.035
			c-0.051-0.049-0.065,0.063-0.032,0.242c0.063,0.352,0.058,0.373-0.066,0.25V182.409z M54.157,181.112
			c-0.037-0.037-0.104,0.029-0.148,0.146c-0.065,0.172-0.052,0.186,0.067,0.068C54.157,181.245,54.193,181.149,54.157,181.112z"/>
	</defs>
	<clipPath id="SVGID_2_">
		<use xlink:href="#SVGID_1_"  overflow="visible"/>
	</clipPath>
	<g clip-path="url(#SVGID_2_)">
		<linearGradient id="SVGID_3_" gradientUnits="userSpaceOnUse" x1="0" y1="108.0229" x2="286.312" y2="108.0229">
			<stop  offset="0" style="stop-color:#FFF33B"/>
			<stop  offset="0.0595" style="stop-color:#FFE029"/>
			<stop  offset="0.1303" style="stop-color:#FFD218"/>
			<stop  offset="0.2032" style="stop-color:#FEC90F"/>
			<stop  offset="0.2809" style="stop-color:#FDC70C"/>
			<stop  offset="0.6685" style="stop-color:#F3903F"/>
			<stop  offset="0.8876" style="stop-color:#ED683C"/>
			<stop  offset="1" style="stop-color:#E93E3A"/>
		</linearGradient>
		<rect y="0.701" fill="url(#SVGID_3_)" width="286.312" height="214.643"/>
	</g>
</g>
</svg>
