<?xml version="1.0" encoding="utf-8"?>
<!-- Generator: Adobe Illustrator 16.0.0, SVG Export Plug-In . SVG Version: 6.00 Build 0)  -->
<!DOCTYPE svg PUBLIC "-//W3C//DTD SVG 1.1//EN" "http://www.w3.org/Graphics/SVG/1.1/DTD/svg11.dtd">
<svg version="1.1" xmlns="http://www.w3.org/2000/svg" xmlns:xlink="http://www.w3.org/1999/xlink" x="0px" y="0px"
	 width="286.312px" height="215.344px" viewBox="0 0 286.312 215.344" enable-background="new 0 0 286.312 215.344"
	 xml:space="preserve">
<g id="Warstwa_2">
</g>
<g id="Warstwa_1">
	<g>
		<defs>
			<path id="SVGID_1_" d="M280.43,83.199c2.395,1.196,3.978,3.34,4.738,6.427c0.873,2.989,0.654,5.731-0.655,8.218
				c-4.355,3.19-10.897,5.136-19.62,5.832c-2.293,0.199-5.994,0.348-11.119,0.45c-4.577,0.199-8.014,0.399-10.302,0.598
				c-9.156,0.995-19.567,3.737-31.233,8.22c-12.864,4.98-21.479,10.161-25.836,15.545c-2.29,2.989-7.851,16.538-16.681,40.654
				c-5.997,16.34-9.757,25.955-11.284,28.847c-5.885,11.457-12.754,17.138-20.602,17.038c-4.036,0-8.235-1.794-12.593-5.382
				c-5.342-4.383-12.756-14.997-22.241-31.836c-8.611-15.544-16.57-25.357-23.875-29.442c-6.977,1.194-12.262,4.035-15.859,8.519
				c8.066,3.786,12.753,11.01,14.063,21.671c1.307,10.563-1.147,19.184-7.359,25.857c-4.36,4.484-10.084,7.625-17.173,9.418
				c-6.647,1.79-13.463,1.991-20.438,0.598c-7.195-1.396-13.246-4.187-18.15-8.369c-5.343-4.485-8.563-10.164-9.648-17.042
				c-1.964-12.055,2.015-22.073,11.935-30.04c10.466-8.372,22.95-10.364,37.448-5.979c1.634-0.501,3.489-1.745,5.558-3.736
				c2.07-2.093,3.871-3.388,5.399-3.889c-10.14-6.874-19.298-17.187-27.474-30.937c-1.416-2.295-7.905-14.998-19.46-38.115
				c-3.376-1.295-6.321-3.686-8.828-7.175c-2.4-3.287-3.819-6.773-4.251-10.462c-0.436-3.984,0.382-7.325,2.454-10.013
				c2.394-2.989,6.213-4.734,11.446-5.231c-0.657-4.683,0.489-9.018,3.433-13.004c-1.201-5.68-5.125-9.266-11.775-10.76
				c-1.855,0.096-3.377,1.393-4.578,3.885C4.67,26.055,3.09,27.3,1.13,27.3c-0.548-0.697,0.38-2.542,2.776-5.532
				c2.723-3.388,4.034-6.127,3.928-8.221c6.759,2.194,10.956,3.689,12.59,4.484c5.234,2.492,8.341,5.582,9.322,9.268
				c5.56,0.497,10.682-0.848,15.37-4.037c1.855-1.295,5.615-4.782,11.285-10.462c4.469-4.487,8.557-7.422,12.263-8.819
				c5.452-2.09,11.717-1.992,18.806,0.3C78.417,5.179,72.261,6.176,68.99,7.272C63.105,9.365,59.777,13,59.017,18.183
				c10.353,7.474,17.93,17.686,22.728,30.64c-6.104-0.498-8.937-0.748-8.5-0.748c-1.531-6.976-3.765-12.705-6.707-17.188
				c-3.817-6.08-8.286-8.818-13.408-8.22c-5.67,0.795-7.362,4.285-5.071,10.462c1.637,4.285,4.468,8.718,8.505,13.302
				c-1.964-0.104-5.292-2.691-9.976-7.773c-4.688-5.082-8.669-7.821-11.939-8.22c-2.944-0.497-5.504-0.199-7.685,0.896
				c-2.29,1.096-3.597,2.84-3.924,5.231c-0.654,4.484,2.671,8.92,9.976,13.302c7.739,4.585,11.666,9.069,11.775,13.454
				c-2.511-0.598-6.49-3.438-11.938-8.52c-5.236-4.684-9.649-7.227-13.247-7.623c-5.125-0.5-8.562,0.748-10.301,3.736
				c-1.634,2.688-1.253,5.83,1.144,9.417c6.323,9.465,19.188,16.84,38.594,22.119c-5.455-10.263-3.544-18.781,5.722-25.557
				c8.832-6.481,19.73-8.669,32.706-6.577c1.198-3.587,3.271-6.577,6.215-8.967c3.376-2.891,6.646-3.49,9.809-1.795
				c-0.218,0.301-2.56,1.745-7.032,4.335c-2.834,1.694-4.145,4.084-3.923,7.175c10.464,3.388,17.005,5.231,19.624,5.528
				c8.501,0.998,11.775-2.391,9.812-10.162c1.524-0.598,4.577-0.848,9.158-0.747c0.433,0.795,0.923,2.391,1.47,4.781
				c0.544,2.093,1.198,3.588,1.96,4.484c12.974,0,25.24-3.835,36.795-11.508c10.571-6.975,16.188-12.108,16.844-15.395
				c0.543-3.189-0.655-6.925-3.599-11.209c-2.943-4.186-5.943-6.577-8.993-7.175c-6.978-1.295-15.862,3.287-26.653,13.751
				c-5.998,5.777-10.034,9.516-12.102,11.21c-4.579,3.389-8.723,5.032-12.429,4.931c3.376-2.194,7.357-5.38,11.938-9.566
				c6.215-5.678,9.977-9.066,11.283-10.162c9.375-7.672,19.515-12.058,30.415-13.153c5.341,3.388,8.447,5.43,9.321,6.127
				c0.873-0.697,1.855-2.489,2.942-5.381c0.874-2.59,2.126-4.135,3.764-4.632c1.963,1.295,2.396,3.287,1.307,5.979
				c0.106-0.301-1.202,1.792-3.925,6.276c2.723-0.995,5.941-3.287,9.649-6.875c3.703-3.588,6.922-5.88,9.649-6.875
				c2.613,5.381,4.028,8.17,4.25,8.37c-2.512,0.896-5.618,2.391-9.322,4.484c-4.033,2.39-7.089,3.986-9.155,4.784
				c7.953,1.295,13.843,3.088,17.659,5.38c-1.2,1.59-3.705,3.388-7.522,5.38c-1.091-0.5-3.106-1.295-6.05-2.391
				c-2.397-0.897-4.308-1.644-5.724-2.242c-0.108,0.399-0.222,1.194-0.328,2.391c-0.108,1.396-0.271,2.493-0.488,3.29
				c-0.549,2.688-1.694,4.632-3.435,5.827c7.414,2.093,13.57,6.428,18.478,13.004c-0.327,0.697-0.981,1.396-1.962,2.09
				c-1.202,0.899-1.962,1.498-2.289,1.795c-0.548-0.697-1.692-2.093-3.435-4.183c-1.419-1.697-2.616-2.989-3.599-3.889
				c-3.051-2.888-6.54-4.582-10.465-5.082c-1.636,0.797-4.145,2.242-7.521,4.334c-3.163,1.894-5.725,3.291-7.688,4.187
				c2.398,1.792,5.179,1.992,8.342,0.598c4.142-1.795,7.522-2.542,10.14-2.242c0.218,0.795,0.491,1.989,0.816,3.588
				c0.327,1.494,0.597,2.641,0.818,3.436c-1.417,0.101-3.215-0.047-5.395-0.446c-2.074-0.502-3.872-0.599-5.398-0.301
				c2.835,6.678,2.126,13.153-2.125,19.433c-4.253,6.178-10.249,9.614-17.99,10.311c13.302,1.795,23.712,0.898,31.233-2.689
				c8.179-4.084,12.267-11.361,12.267-21.823c-0.767,0.199-1.364,1.446-1.798,3.736c-0.439,2.593-1.203,4.186-2.29,4.782
				c-0.766-0.396-0.878-1.492-0.326-3.29c0.545-1.79,0.326-2.986-0.658-3.583c-0.762-0.798-1.905-0.997-3.43-0.598
				c-1.965,0.497-3.332,0.696-4.09,0.598c0.325-1.197,1.251-2.143,2.78-2.84c2.942-1.396,4.251-1.994,3.924-1.794
				c-0.109-0.599-1.146-1.644-3.107-3.139c-1.527-1.197-1.854-2.191-0.98-2.989c5.01,0.599,7.521,2.642,7.521,6.128
				c4.356-0.795,7.138-3.636,8.343-8.519c2.72,0.995,3.866,3.835,3.432,8.519c-4.032,1.595-6.868,2.343-8.504,2.242
				c0.218,0.997,1.198,1.247,2.945,0.748c1.526-0.399,2.23-0.399,2.127,0c-1.53,8.47-8.237,27.152-20.115,56.05
				c7.521-3.288,16.187-6.628,25.997-10.013c2.399-0.797,7.198-2.143,14.393-4.036c6.106-1.496,10.792-2.94,14.063-4.336
				c2.182-0.896,4.904-2.34,8.175-4.334c4.145-2.291,6.87-3.785,8.182-4.485C268.106,84.247,274.432,82.802,280.43,83.199
				 M49.042,208.152c5.122-0.995,9.539-3.437,13.243-7.324c3.492-3.687,5.833-7.971,7.032-12.854
				c1.09-4.98,0.711-9.664-1.144-14.049c-2.069-4.781-5.67-8.419-10.792-10.912c-0.548,1.198-2.073,3.24-4.581,6.131
				c-1.854,2.29-2.835,4.582-2.941,6.874c-0.107,0.697,0.434,2.191,1.634,4.484c0.982,1.988,1.253,3.835,0.818,5.528
				c-0.651,2.491-2.182,4.437-4.578,5.829c-2.181,1.198-4.688,1.647-7.521,1.347c-2.838-0.298-5.177-1.245-7.032-2.84
				c-2.18-1.695-3.327-3.937-3.433-6.726c-0.328-5.979,3.539-9.566,11.609-10.762c0.762-1.693,2.182-4.086,4.25-7.174
				c2.07-2.989,3.492-5.431,4.253-7.323c-11.338-1.495-20.661,0.297-27.961,5.378c-7.416,5.185-10.688,12.604-9.812,22.271
				c0.653,7.773,4.958,13.9,12.915,18.385C32.526,208.7,40.537,209.947,49.042,208.152 M69.973,136.857
				c2.396,0.798,12.427,1.594,30.086,2.392c20.385,0.896,34.015,0.3,40.882-1.792c11.341-3.389,16.459-11.511,15.374-24.364
				c-7.853-11.459-26.982-18.286-57.398-20.477c-42.842-2.989-66.499-5.083-70.968-6.276c0.434,0.399,6.156,9.463,17.168,27.201
				C53.184,126.395,61.469,134.167,69.973,136.857 M47.242,179.754c-0.109-2.093-1.038-3.538-2.78-4.335
				c-1.528-0.697-3.327-0.747-5.395-0.148c-2.071,0.598-3.597,1.593-4.581,2.988c-1.201,1.495-1.415,3.04-0.652,4.633
				c0.759,0.101,2.617-0.747,5.56-2.54C42.011,178.756,44.627,178.557,47.242,179.754 M86.653,53.456
				c-14.392-1.394-24.64,1.495-30.743,8.669c-2.726,3.189-3.709,6.672-2.944,10.462c0.873,4.085,3.762,7.923,8.666,11.51
				c5.234,0.497,12.208,0.694,20.932,0.596c10.9-0.099,17.88-0.048,20.931,0.152c11.34,0.498,16.898,0.744,16.68,0.744
				c1.31-0.196,2.998-0.896,5.07-2.09c2.394-1.396,4.088-2.242,5.067-2.542c-0.762,0.199,7.417-1.295,24.529-4.484
				c9.591-1.792,15.969-5.13,19.134-10.013c-0.328-0.896-1.528-1.396-3.598-1.494c-2.182-0.101-3.543-0.399-4.087-0.897
				c3.597-0.699,5.285-2.196,5.067-4.483c-1.202-0.5-2.726-0.3-4.579,0.596c-1.417,0.699-2.397,0.748-2.943,0.151
				c2.509-3.489,3.326-5.531,2.455-6.13c-8.399,4.785-14.499,7.574-18.317,8.372c-7.744,1.494-18.259,0.646-31.559-2.542
				C98.858,55.846,88.94,53.655,86.653,53.456 M92.539,14.295c0-1.694-0.981-3.188-2.944-4.483c-2.289-1.394-3.544-2.689-3.76-3.886
				c1.635,0.099,3.27,0.748,4.906,1.944c1.852,1.494,3.326,2.34,4.415,2.539c0.98-0.798,1.851-2.241,2.617-4.334
				c1.198-2.59,1.961-4.183,2.287-4.782c0.875-0.101,1.637,0.096,2.292,0.599c0.98,0.498,1.633,0.795,1.962,0.896
				c-0.438,0.896-1.146,2.292-2.126,4.183c-0.875,1.795-1.579,3.24-2.127,4.335c0.437,0.101,3.381,0.101,8.833,0
				c4.357-0.098,7.031,0.649,8.014,2.242c0.106-0.598-1.858-0.351-5.891,0.748c5.668-0.098,9.541,2.742,11.613,8.521
				c1.961,5.481,1.473,10.561-1.47,15.244c-3.491-11.457-6.868-19.129-10.143-23.017c-0.762-0.498-1.959-0.447-3.594,0.151
				c-3.165,1.096-4.472,1.542-3.927,1.343c0,0.599,0.381,1.795,1.146,3.588c0.545,1.396,0.707,2.79,0.49,4.186
				c-2.073-3.29-4.906-5.481-8.504-6.58c-3.707-1.194-7.577-1.042-11.61,0.452C86.326,15.689,88.831,14.396,92.539,14.295
				 M157.131,179.754c1.415-3.391,3.539-9.116,6.377-17.188c2.397-6.775,4.468-12.006,6.214-15.693
				c-0.108-1.196-0.654-1.693-1.637-1.497c-9.264,2.492-34.449,3.239-75.547,2.244c6.758,9.168,13.735,19.63,20.931,31.387
				c7.412,12.059,10.849,17.688,10.304,16.891c5.558,8.071,10.518,11.906,14.881,11.508c3.815-0.299,7.626-4.037,11.446-11.21
				C150.86,194.801,153.206,189.32,157.131,179.754 M116.905,39.555c11.446,3.689,16.731,4.984,15.86,3.888
				c1.308-1.095,1.903-3.14,1.796-6.129c4.252,4.683,6.161,6.973,5.726,6.877c-1.42,0.2-3.655,0.298-6.705,0.298
				c-3.706,0-6.214,0.051-7.521,0.148c-6.215,0.399-10.412,2.292-12.592,5.681c-2.618-0.998-4.963-3.537-7.031-7.622
				c-2.292-4.484-4.415-7.325-6.379-8.521c1.855-0.696,3.87-0.247,6.052,1.346c1.855,1.295,3.214,2.892,4.087,4.782
				c-0.548,0.5,1.416-2.79,5.888-9.864c1.525,0.301,2.126,1.644,1.796,4.037c-0.107,0.497-0.326,1.444-0.653,2.838
				C117.012,38.412,116.905,39.158,116.905,39.555 M156.314,48.076c-0.983,0.798-2.398,0.845-4.252,0.149
				c-2.185-0.896-3.87-1.244-5.071-1.045c1.091-2.59,1.965-5.382,2.618-8.372C151.134,43.488,153.37,46.581,156.314,48.076
				 M164.653,34.922c-0.328,1.194-1.145,1.545-2.453,1.048c-2.071-0.797-3.49-1.146-4.252-1.048c0-0.697,0.217-1.646,0.656-2.84
				c0.326-1.096,0.381-2.191,0.164-3.287c0.979,0.298,1.851,1.444,2.612,3.438C162.036,34.125,163.125,35.023,164.653,34.922
				 M166.29,15.043c0.432,0.699,1.36,1.795,2.778,3.29c1.2,1.295,1.962,2.489,2.289,3.587c-0.762,0-1.854-0.3-3.271-0.898
				c-1.2-0.498-2.343-0.697-3.433-0.596C165.853,17.436,166.394,15.642,166.29,15.043 M180.678,34.922
				c-0.762-0.399-2.02-0.797-3.761-1.194c-1.857-0.399-3.165-0.748-3.924-1.048c1.414-2.391,2.015-4.434,1.796-6.127
				c0.328,1.495,1.2,2.989,2.619,4.484C179.259,33.228,180.351,34.523,180.678,34.922"/>
		</defs>
		<clipPath id="SVGID_2_">
			<use xlink:href="#SVGID_1_"  overflow="visible"/>
		</clipPath>
		<linearGradient id="SVGID_3_" gradientUnits="userSpaceOnUse" x1="0" y1="108.0229" x2="286.312" y2="108.0229">
			<stop  offset="0" style="stop-color:#FFF33B"/>
			<stop  offset="0.0595" style="stop-color:#FFE029"/>
			<stop  offset="0.1303" style="stop-color:#FFD218"/>
			<stop  offset="0.2032" style="stop-color:#FEC90F"/>
			<stop  offset="0.2809" style="stop-color:#FDC70C"/>
			<stop  offset="0.6685" style="stop-color:#F3903F"/>
			<stop  offset="0.8876" style="stop-color:#ED683C"/>
			<stop  offset="1" style="stop-color:#E93E3A"/>
		</linearGradient>
		<rect y="0.701" clip-path="url(#SVGID_2_)" fill="url(#SVGID_3_)" width="286.312" height="214.643"/>
	</g>
</g>
</svg>
