<?xml version="1.0" encoding="utf-8"?>
<!-- Generator: Adobe Illustrator 16.0.0, SVG Export Plug-In . SVG Version: 6.00 Build 0)  -->
<!DOCTYPE svg PUBLIC "-//W3C//DTD SVG 1.1//EN" "http://www.w3.org/Graphics/SVG/1.1/DTD/svg11.dtd">
<svg version="1.1" id="Warstwa_2" xmlns="http://www.w3.org/2000/svg" xmlns:xlink="http://www.w3.org/1999/xlink" x="0px" y="0px"
	 width="286.312px" height="215.344px" viewBox="0 0 286.312 215.344" enable-background="new 0 0 286.312 215.344"
	 xml:space="preserve">
<g>
	<defs>
		<path id="SVGID_1_" d="M277.037,34.966c2.741-0.145,5.485-0.221,8.226-0.328c0.004,30.957,0.002,61.915,0.002,92.872
			c0.017,1.639-0.034,3.277,0.033,4.913c-1.223,0.952-2.298,2.113-3.67,2.857c-5.187,3.06-10.305,6.234-15.56,9.173
			c-2.119,1.188-4.211,2.422-6.342,3.582c-3.176,1.619-6.352,3.232-9.519,4.863c-0.261,0.115-0.52,0.33-0.819,0.25
			c-0.513-0.113-0.999,0.156-1.498,0.211c-1.685,0.322-3.361-0.262-4.866-0.971c-1.647-0.764-2.962-2.08-4.052-3.5
			c-1.831-2.412-3.115-5.176-4.38-7.913c-0.616-1.408-1.548-2.658-2.119-4.09c-0.122-0.324-0.161-0.666-0.198-1.004
			c0.208-0.089,0.42-0.185,0.637-0.264c-0.148,0.275-0.417,0.567-0.268,0.901c0.275,0.931,0.821,1.747,1.286,2.589
			c0.774,1.266,1.29,2.665,1.947,3.992c1.26,2.522,2.608,5.06,4.584,7.104c1.33,1.387,3.093,2.291,4.935,2.783
			c1.131,0.303,2.333,0.215,3.449-0.109c0.159-0.068,0.489-0.107,0.419-0.359c-0.26-1.926-0.62-3.842-0.9-5.766
			c-0.157-1.254-0.59-2.443-0.933-3.651c-0.488-1.688-0.968-3.377-1.463-5.063c-0.519-1.589-1.064-3.171-1.604-4.753
			c-0.521-1.561-1.051-3.118-1.576-4.677c-0.332-1.07-0.881-2.054-1.334-3.073c-0.907-1.956-1.818-3.91-2.729-5.864
			c-0.509-0.997-0.767-2.09-1.121-3.145c-1.035-3.224-2.021-6.465-3.089-9.678c-1.495-3.132-3.042-6.24-4.545-9.367
			c-1.185-2.522-2.351-5.052-3.529-7.574c-0.269-0.562-0.49-1.152-0.87-1.648c-1.844-2.453-3.691-4.902-5.532-7.356
			c-0.677-0.854-1.267-1.778-2.01-2.578c-2.236-2.205-4.479-4.406-6.713-6.616c-0.412-0.381-0.76-0.897-1.338-1.029
			c-1.566-0.479-3.127-0.972-4.691-1.455c-0.964-0.314-1.945-0.577-2.897-0.925c2.746-1.339,5.543-2.571,8.305-3.88
			c2.24-1.024,4.451-2.117,6.712-3.098c5.904-2.336,11.792-4.72,17.708-7.026c3.376-1.152,6.756-2.298,10.136-3.439
			c0.771-0.243,1.29-0.909,1.92-1.375c1.168-0.953,2.3-1.953,3.486-2.88c1.227-0.761,2.48-1.483,3.727-2.209
			c1.667-0.816,3.374-1.553,5.051-2.345c1.013-0.533,2.175-0.626,3.268-0.919c1.787-0.41,3.582-0.798,5.349-1.29
			c0.984-0.612,1.857-1.399,2.797-2.084c0.846-0.738,1.961-1.011,2.959-1.479C274.89,35.861,275.928,35.311,277.037,34.966
			 M257.455,136.008c-1.669,0.212-2.977,1.832-2.863,3.503c0.059,1.74,1.65,3.264,3.407,3.173c1.896,0.081,3.545-1.755,3.319-3.627
			C261.245,137.165,259.306,135.675,257.455,136.008L257.455,136.008z"/>
	</defs>
	<defs>
		<path id="SVGID_2_" d="M0.9,46.497c1.282,1.005,2.563,2.011,3.86,2.998c1.014,0.599,2.105,1.053,3.142,1.612
			c0.751,0.441,1.647,0.411,2.481,0.547c2.248,0.311,4.508,0.552,6.747,0.901c3.522,1.24,7.017,2.568,10.532,3.835
			c0.949,0.323,1.829,0.81,2.733,1.24c2.696,1.301,5.388,2.619,8.087,3.917c1.342,0.639,2.654,1.341,4.034,1.896
			c3.826,1.6,7.649,3.207,11.474,4.809c2.773,1.13,5.492,2.401,8.329,3.362c2.938,1.06,5.891,2.073,8.817,3.159
			c-0.218,0.333-0.426,0.669-0.645,0.998c-1.218,1.854-2.424,3.717-3.635,5.576c-0.366,0.574-0.776,1.125-1.063,1.745
			c-2.155,4.451-4.344,8.886-6.489,13.342c-4.419,11.582-8.803,23.176-13.233,34.753c-0.342,0.977-0.801,1.914-1.05,2.922
			c-0.535,2.707-1.079,5.412-1.605,8.119c-0.594,2.939-1.157,5.883-1.768,8.82c-0.655,2.461-0.87,5.008-1.569,7.461
			c-0.234,0.984-0.656,1.922-0.839,2.922c0.599-0.453,1.096-1.02,1.629-1.545c0.918-0.908,1.83-1.824,2.746-2.734
			c0.711-0.711,1.124-1.639,1.669-2.467c1.142-1.809,2.236-3.645,3.222-5.545c1.076-1.707,1.463-3.717,2.161-5.584
			c0.069,0.02,0.21,0.057,0.281,0.077c-0.551,1.446-0.942,2.95-1.521,4.388c-1.083,2.006-2.141,4.031-3.375,5.949
			c-0.665,1.016-1.218,2.111-1.956,3.074c-1.933,1.922-3.833,3.871-5.799,5.758c-0.722,0.762-1.369,1.594-2.117,2.33
			c-4.05-1.748-8.073-3.559-12.166-5.209c-4.216-1.754-8.469-3.422-12.646-5.273c-1.723-0.744-3.44-1.494-5.165-2.24
			c-1.759-0.709-3.544-1.352-5.305-2.057V46.497 M29.987,146.651c-1.507,0.342-2.659,1.811-2.578,3.363
			c-0.003,1.781,1.644,3.367,3.429,3.268c1.857,0.035,3.493-1.719,3.305-3.57C34.093,147.69,31.937,146.112,29.987,146.651
			L29.987,146.651z"/>
	</defs>
	<defs>
		<path id="SVGID_3_" d="M136.138,69.154c1.531-0.565,3.177-0.652,4.786-0.811c2.809-0.253,5.688-0.015,8.348,0.957
			c3.42,1.261,7.073,1.575,10.62,2.306c3.86,0.872,7.725,1.744,11.604,2.543c4.541,0.854,9.009,2.039,13.495,3.138
			c3.486,0.646,7.034-0.035,10.464-0.69c1.639-0.328,3.142-1.072,4.607-1.848c0.326,0.666,0.4,1.413,0.59,2.122
			c0.281,1.115,0.472,2.253,0.812,3.353c0.949,2.47,1.94,4.926,2.73,7.455c0.628,1.926,1.351,3.823,1.776,5.81
			c0.657,2.958,1.708,5.806,2.548,8.71c1.59,7,3.166,14.003,4.756,21.003c0.032,0.283,0.201,0.578,0.12,0.861
			c-0.949,0.504-1.765,1.223-2.405,2.084c-0.769,1.052-1.844,1.808-2.777,2.699c-1.126,1.058-2.316,2.043-3.571,2.946
			c-0.809,0.585-1.472,1.519-2.504,1.702c-0.738-0.556-1.32-1.296-1.991-1.93c-2.029-2.07-4.029-4.165-6.028-6.267
			c-0.903-0.918-1.751-1.9-2.747-2.727c-2.328-1.968-5.057-3.364-7.643-4.952c-4.331-2.727-8.474-5.73-12.657-8.673
			c-5.213-3.65-10.531-7.15-15.826-10.684c-2.354-1.543-4.627-3.204-7.015-4.694c-2.738-1.706-5.616-3.272-8.751-4.11
			c-1.962-0.516-4.036-0.714-6.046-0.357c-2.04,0.386-4.037,0.979-5.974,1.721c-6.882,2.624-12.855,7.069-19.566,10.05
			c-2.54,1.147-5.152,2.13-7.796,3.007c-0.772,0.185-1.578,0.002-2.34-0.156c-0.751-0.199-1.582-0.375-2.12-0.982
			c-0.44-0.452-0.898-0.896-1.243-1.428c-0.427-0.657-0.403-1.471-0.433-2.222c-0.003-0.48-0.067-1,0.204-1.426
			c0.449-0.757,1.118-1.353,1.787-1.911c1.192-0.961,2.478-1.797,3.778-2.601c1.171-0.734,2.401-1.402,3.405-2.366
			c3.607-3.424,5.072-8.477,8.68-11.902c1.316-1.217,3.021-1.905,4.731-2.364c4.1-1.116,8.229-2.199,12.152-3.854
			C131.213,71.57,133.548,70.083,136.138,69.154L136.138,69.154z"/>
	</defs>
	<defs>
		<path id="SVGID_4_" d="M86.713,89.208c0.408-1.256,0.533-2.595,0.981-3.837c1.942,0.601,3.973,0.818,5.984,1.043
			c3.541,0.394,7.119,0.345,10.661-0.013c-0.681,1.143-1.531,2.186-2.496,3.1c-0.881,0.84-1.966,1.41-2.984,2.056
			c-1.68,1.049-3.367,2.115-4.825,3.464c-0.925,0.885-1.891,1.969-1.888,3.326c0.014,1.225-0.052,2.531,0.539,3.65
			c0.459,0.834,1.146,1.509,1.811,2.178c0.752,0.775,1.842,1.054,2.855,1.314c1.139,0.233,2.366,0.492,3.491,0.059
			c3.453-1.164,6.857-2.487,10.118-4.122c6.177-3.061,11.877-7.129,18.441-9.382c0.717-0.208,1.418-0.563,2.184-0.531
			c1.827,0.005,3.742-0.39,5.492,0.324c3.462,1.19,6.889,2.623,9.846,4.817c5.098,3.801,10.714,6.813,16.169,10.058
			c4.574,2.701,8.891,5.798,13.288,8.773c2.914,1.985,5.846,3.947,8.836,5.821c2.429,1.472,4.768,3.097,6.972,4.893
			c1.875,1.469,3.376,3.334,5.061,5.002c2.096,2.027,3.305,4.754,4.236,7.468c0.402,1.42,0.406,2.914,0.388,4.378
			c-0.026,1.452-0.628,2.808-1.303,4.067c-0.688,1.398-1.653,2.68-2.881,3.648c-0.454,0.336-1.011,0.736-1.605,0.539
			c-2.946-0.699-5.839-1.668-8.566-2.99c-4.722-2.537-8.361-6.578-12.747-9.601c-2.755-1.946-5.671-3.656-8.6-5.329
			c-0.698-0.37-1.348-0.842-2.084-1.135c-0.239,0.47-0.511,0.919-0.777,1.375c-0.545-0.184-1.268,0.377-1.011,0.944
			c0.64,0.513,1.345,0.937,2.009,1.421c0.576,0.354,1.002,0.909,1.637,1.178c1.683,1.149,3.359,2.321,5.16,3.284
			c0.609,0.312,1.201,0.702,1.896,0.789c1.614,1.539,3.132,3.181,4.832,4.626c0.287,0.217,0.478,0.525,0.635,0.842
			c0.769,1.504,1.888,2.783,2.709,4.254c0.549,0.979,1.018,2.047,1.063,3.186c0.024,1.947-0.044,3.943-0.725,5.793
			c-0.368,0.953-0.691,1.959-1.368,2.746c-0.89,1.068-2.063,1.869-3.293,2.504c-0.305,0.148-0.608,0.324-0.947,0.375
			c-2.799,0.156-5.651-0.365-8.165-1.615c-2.883-1.398-5.279-3.574-7.563-5.779c-3.631-3.48-7.119-7.23-11.517-9.768
			c-0.308,0.521-0.618,1.041-0.894,1.582c2.64,1.51,4.932,3.533,7.136,5.609c2.075,1.969,4.081,4.018,6.211,5.932
			c2.055,1.838,4.328,3.496,6.904,4.521c0.084,0.707,0.219,1.451,0.052,2.15c-0.501,0.857-0.674,1.84-0.979,2.771
			c-0.283,0.738-0.896,1.27-1.42,1.834c-0.436,0.475-1.079,0.646-1.668,0.85c-1.387,0.4-2.794,1.004-4.267,0.773
			c-0.819-0.146-1.638-0.301-2.445-0.502c-1.622-0.588-3.158-1.393-4.771-2.008c-0.693-0.236-1.234-0.746-1.813-1.168
			c-2.361-1.832-4.523-3.9-6.919-5.68c-1.327-0.994-2.648-1.998-3.996-2.965c-1.671-0.973-3.685-0.947-5.549-1.223
			c-0.101,0.594-0.229,1.186-0.268,1.791c1.594,0.25,3.287,0.213,4.771,0.918c2.185,1.607,4.393,3.193,6.471,4.941
			c1.713,1.457,3.398,2.953,5.22,4.285c0.035,1.334-0.423,2.637-0.908,3.861c-0.574,0.406-1.285,0.58-1.908,0.904
			c-1.51,0.793-3.292,0.971-4.963,0.732c-1.092-0.129-1.899-0.926-2.801-1.471c-1.18-0.742-2.281-1.613-3.517-2.26
			c-0.785-0.41-1.667-0.104-2.366,0.324c-2.992-2.709-4.951-6.303-7.612-9.303c-0.346-0.342-0.258-0.945-0.748-1.174
			c-1.088-0.154-2.198-0.244-3.291-0.125c-0.368,0.092-0.732-0.025-1.093-0.08c-0.646-0.113-1.303-0.141-1.954-0.195
			c0.459-0.869,0.892-1.775,1.023-2.76c0.216-1.588,0.143-3.248-0.416-4.762c-0.238-0.662-0.56-1.287-0.894-1.904
			c-0.483-0.869-0.902-1.809-1.686-2.459c-1.264-1.09-2.802-2.027-4.516-2.072c-1.105-0.059-2.242-0.117-3.319,0.189
			c-0.606,0.162-1.18,0.414-1.756,0.654c-0.611-1.689-1.353-3.357-2.462-4.785c-1.163-1.512-2.79-2.743-4.688-3.129
			c-1.699-0.318-3.445,0.05-5.064,0.58c-1.032,0.381-2.113,0.73-2.971,1.447c-0.56,0.457-0.946,1.076-1.36,1.656
			c-3.111-2.666-6.382-5.305-10.283-6.713c-0.619-0.266-1.378-0.289-1.825-0.851c-0.395-0.057-0.689,0.296-0.968,0.522
			c-0.49,0.443-0.79,1.047-1.007,1.666c-0.952,0.334-1.897,0.691-2.854,1.011c-0.1-0.336-0.144-0.684-0.109-1.029
			c0.119-2.28,0.212-4.561,0.326-6.839c0.021-0.532,0.183-1.04,0.292-1.556c1.541-6.807,3.08-13.616,4.62-20.424
			c0.395-1.957,1.105-3.827,1.669-5.737c0.588-1.717,0.968-3.492,1.419-5.245c0.289-1.263,0.764-2.47,1.159-3.702
			c0.592-1.722,1.109-3.47,1.787-5.161C85.833,91.488,86.278,90.35,86.713,89.208L86.713,89.208z"/>
	</defs>
	<defs>
		<path id="SVGID_5_" d="M79.383,148.247c-0.422-2.277-0.186-4.605-0.121-6.902c4.084,1.202,7.458,3.926,10.638,6.646
			c0.613,0.473,1.139,1.064,1.805,1.469c0.507-0.889,0.973-1.811,1.595-2.627c0.491-0.646,1.271-0.955,2.002-1.244
			c1.535-0.59,3.195-1.059,4.854-0.82c1.607,0.316,2.934,1.441,3.864,2.748c1.28,1.775,1.989,3.879,2.55,5.975
			c1.437-0.627,2.81-1.555,4.417-1.652c0.867-0.021,1.748-0.012,2.599,0.174c0.933,0.305,1.785,0.838,2.517,1.49
			c0.591,0.49,0.864,1.229,1.24,1.875c0.608,1.084,1.145,2.25,1.222,3.508c0.103,1.291,0.022,2.66-0.645,3.807
			c-0.587,1.068-1.297,2.066-1.901,3.127c1.635,0.014,3.281-0.049,4.903,0.186c1.716,0.262,3.272,1.078,4.763,1.924
			c0.469,0.125,0.699,0.57,0.982,0.924c1.801,2.369,3.454,4.881,5.608,6.957c-2.567,1.406-5.537,2.5-8.508,2.014
			c-0.655-0.105-1.326-0.125-1.972-0.273c-0.932-0.727-1.307-1.922-2.083-2.789c-0.794-0.893-1.756-1.615-2.727-2.303
			c-1.094-0.725-2.219-1.467-3.499-1.814c-1.832-0.41-3.71-0.682-5.473-1.359c-0.528-0.219-1.098-0.455-1.431-0.943
			c-0.681-0.943-1.513-1.779-2.099-2.791c-0.545-0.938-0.465-2.064-0.498-3.105c0.008-0.898-0.112-1.791-0.169-2.686
			c-1.342,0.561-2.344,1.699-3.577,2.453c-0.33,0.184-0.7,0.396-1.092,0.291c-0.982-0.182-1.971-0.357-2.919-0.668
			c-1.344-0.426-2.49-1.268-3.7-1.955c-0.59-0.316-1.004-0.893-1.103-1.553c-0.437-2.541-0.636-5.125-0.611-7.705
			c-1.592,0.518-3.141,1.473-4.873,1.273c-1.94-0.236-3.75-1.039-5.513-1.844C79.736,149.739,79.546,148.917,79.383,148.247
			L79.383,148.247z"/>
	</defs>
	<defs>
		<path id="SVGID_6_" d="M285.26,34.638l0.151-0.003v97.684l-0.116,0.104c-0.067-1.636-0.017-3.274-0.033-4.913
			C285.262,96.553,285.264,65.595,285.26,34.638z"/>
	</defs>
	<defs>
		<path id="SVGID_7_" d="M139.916,66.7c2.935-0.392,5.967-0.26,8.81,0.617c1.05,0.333,2.092,0.688,3.155,0.98
			c3.27,0.828,6.641,1.146,9.91,1.96c2.952,0.658,5.908,1.31,8.866,1.951c1.879,0.38,3.764,0.734,5.632,1.167
			c2.957,0.644,5.87,1.463,8.813,2.158c3.299,0.699,6.644-0.056,9.906-0.592c1.313-0.27,2.531-0.853,3.719-1.457
			c0.177-0.115,0.455-0.199,0.433-0.462c-0.103-0.462-0.302-0.896-0.488-1.326c0.681-0.614,1.61-0.795,2.416-1.19
			c0.716-0.349,1.515-0.428,2.299-0.501c0.697-0.06,1.304-0.44,1.899-0.778c1.563,0.483,3.123,0.975,4.689,1.455
			c0.58,0.132,0.927,0.647,1.34,1.029c2.234,2.21,4.475,4.411,6.713,6.616c0.742,0.8,1.331,1.724,2.008,2.578
			c1.841,2.454,3.688,4.903,5.532,7.356c0.381,0.497,0.603,1.086,0.87,1.648c1.179,2.522,2.345,5.052,3.529,7.574
			c1.506,3.126,3.052,6.236,4.544,9.367c1.068,3.213,2.057,6.455,3.092,9.679c0.354,1.054,0.612,2.146,1.119,3.144
			c0.912,1.954,1.823,3.908,2.73,5.864c0.453,1.02,1,2.003,1.332,3.073c0.525,1.559,1.057,3.116,1.576,4.677
			c-1.729,0.278-3.455,0.595-5.181,0.897c-2.101,0.44-4.175,0.984-6.271,1.435c-0.217,0.079-0.427,0.175-0.636,0.264
			c-1.389,0.514-2.745,1.098-4.125,1.627c-1.521,0.728-3.235,0.756-4.87,1.043c-1.579,0.127-2.81,1.212-4.157,1.925
			c-0.749,0.375-1.476,1.102-2.38,0.855c-1.553-0.31-3.126-0.496-4.672-0.829c0.098-0.974,0.454-1.894,0.684-2.84
			c0.348-1.407,0.736-2.807,1.114-4.209c0.336-1.322,0.02-2.68-0.003-4.017c0-1.095-0.115-2.181-0.198-3.27
			c-0.935,0.472-1.367,1.483-2.106,2.171c-1.035,0.94-2.089,1.86-3.114,2.811c-1.18,1.052-2.514,1.917-3.687,2.981
			c-0.68,0.642-1.538,1.017-2.387,1.373c0.43,1.464,1.08,2.854,1.501,4.322c0.451,1.468,0.789,3.029,0.483,4.563
			c-0.238,1.424-1.079,2.635-1.75,3.883c-0.682,1.121-1.302,2.301-2.211,3.256c-0.763,0.793-1.584,1.584-2.64,1.957
			c-1.542,0.643-3.269,0.359-4.828-0.07c-3.784-1.035-6.994-3.42-10.063-5.768c-0.184-0.123-0.378-0.229-0.567-0.332
			c0.414,0.754,1.009,1.406,1.34,2.209c0.427,1.047,0.621,2.17,0.738,3.291c0.274,2.813,0.352,5.773-0.785,8.426
			c-0.603,1.537-1.688,2.816-2.829,3.982c-1.071,0.984-2.319,1.949-3.813,2.117c-0.862,0.133-1.692,0.418-2.561,0.518
			c-1.381,0.184-2.838,0.182-4.113,0.803c-0.401,0.168-0.396,0.658-0.486,1.018c-0.16,1.055-0.611,2.039-1.195,2.924
			c-0.684,1.084-1.807,1.758-2.72,2.617c-1.284,1.172-3.076,1.623-4.781,1.551c-1.392-0.121-2.748-0.488-4.06-0.951
			c-1.34-0.367-2.71-0.664-3.964-1.285c-0.701,0.896-0.415,2.332-1.438,3.031c-0.867,0.578-1.273,1.58-2.055,2.248
			c-0.749,0.773-1.815,1.143-2.87,1.256c-1.505,0.188-3.067,0.576-4.565,0.146c-1.268-0.482-2.508-1.033-3.745-1.584
			c-1.077-0.488-2.189-0.91-3.197-1.533c-0.47-0.27-0.889-0.629-1.392-0.834c-0.372,0.049-0.696,0.252-1.026,0.412
			c-2.689,1.336-5.669,2.396-8.72,2.035c-1.143-0.188-2.39-0.105-3.425-0.695c-1.021-0.736-1.479-1.969-2.256-2.922
			c-0.724-0.865-1.64-1.537-2.549-2.188c-1.045-0.717-2.169-1.385-3.431-1.623c-1.64-0.313-3.283-0.648-4.861-1.205
			c-0.716-0.258-1.439-0.572-1.989-1.113c-0.477-0.473-0.826-1.049-1.252-1.561c-0.701-0.859-1.457-1.719-1.802-2.791
			c-0.267-0.744-0.184-1.564-0.476-2.299c-0.925,0.508-1.884,1.207-3.001,1.021c-1.939-0.313-3.938-0.707-5.616-1.783
			c-1.009-0.654-2.159-1.145-2.965-2.066c-0.636-0.707-0.854-1.674-0.965-2.59c-0.159-1.498-0.366-2.99-0.437-4.496
			c-0.815,0.041-1.591,0.35-2.408,0.35c-1.978,0.047-3.854-0.697-5.655-1.426c-0.79-0.359-1.672-0.623-2.287-1.262
			c-0.787-0.93-1.1-2.152-1.25-3.332c-0.166-1.461,0.005-2.934-0.098-4.397c-0.724,0.047-1.403,0.314-2.07,0.579
			c-0.192,0.088-0.485,0.189-0.407,0.463c0.106,0.846,0.436,1.639,0.624,2.469c0.192,0.887,0.596,1.748,0.527,2.674
			c-1.386,0.268-2.785,0.471-4.17,0.742c-0.494,0.074-1.047,0.262-1.507-0.031c-1.218-0.707-2.434-1.42-3.643-2.139
			c-0.875-0.498-1.908-0.521-2.876-0.699c-0.953-0.176-1.944-0.182-2.858-0.527c-1.713-0.641-3.394-1.361-5.101-2.016
			c-1.61-0.5-3.286-0.75-4.906-1.214c-0.071-0.021-0.212-0.058-0.281-0.077c-1.32-0.355-2.677-0.537-4.018-0.786
			c-1.079-0.175-2.148-0.408-3.233-0.542c0.526-2.707,1.07-5.412,1.605-8.119c0.249-1.007,0.708-1.945,1.05-2.922
			c4.431-11.577,8.814-23.171,13.233-34.753c2.146-4.456,4.334-8.891,6.489-13.342c0.287-0.621,0.697-1.171,1.063-1.745
			c1.211-1.859,2.417-3.722,3.635-5.576c1.668,0.43,3.357,0.77,5.029,1.187c1.384,0.417,2.741,0.917,4.116,1.359
			c1.184,0.354,2.435,0.334,3.649,0.506c1.336,0.193,2.745,0.137,3.983,0.747c0.702,0.342,1.481,0.542,2.124,0.999
			c0.224,0.147,0.067,0.451,0.01,0.65c-0.34,0.798-0.821,1.53-1.129,2.346c0.283,0.151,0.579,0.28,0.899,0.333
			c3.618,0.728,7.32,1.061,11.011,0.983c1.577-0.095,3.152-0.235,4.73-0.326c0.642,0.005,0.987-0.604,1.268-1.088
			c0.569-1.074,1.286-2.059,1.974-3.058c1.333-2.043,3.134-3.854,5.422-4.792c2.649-1.096,5.502-1.559,8.22-2.446
			c2.755-0.821,5.481-1.778,8.054-3.073c2.183-1.143,4.373-2.333,6.762-2.996C137.687,66.793,138.814,66.834,139.916,66.7
			 M136.138,69.154c-2.59,0.929-4.925,2.416-7.439,3.513c-3.924,1.655-8.053,2.739-12.152,3.854
			c-1.711,0.459-3.415,1.147-4.731,2.364c-3.607,3.425-5.072,8.478-8.68,11.902c-1.004,0.964-2.234,1.632-3.405,2.366
			c-1.301,0.804-2.586,1.639-3.778,2.601c-0.669,0.559-1.338,1.154-1.787,1.912c-0.271,0.425-0.207,0.945-0.204,1.425
			c0.029,0.75,0.006,1.565,0.433,2.222c0.345,0.531,0.803,0.976,1.243,1.428c0.538,0.607,1.369,0.784,2.12,0.982
			c0.762,0.158,1.567,0.34,2.34,0.157c2.644-0.878,5.256-1.861,7.796-3.008c6.711-2.981,12.685-7.427,19.566-10.049
			c1.937-0.741,3.934-1.336,5.974-1.722c2.01-0.356,4.084-0.159,6.046,0.357c3.135,0.838,6.013,2.405,8.751,4.112
			c2.388,1.489,4.66,3.149,7.015,4.693c5.295,3.533,10.613,7.034,15.826,10.684c4.184,2.942,8.326,5.946,12.657,8.673
			c2.586,1.588,5.314,2.984,7.643,4.953c0.996,0.826,1.844,1.808,2.747,2.726c1.999,2.102,3.999,4.196,6.028,6.267
			c0.671,0.634,1.253,1.376,1.991,1.93c1.032-0.184,1.695-1.117,2.504-1.702c1.255-0.903,2.443-1.889,3.571-2.946
			c0.934-0.892,2.009-1.647,2.777-2.699c0.641-0.861,1.456-1.58,2.405-2.084c0.081-0.283-0.088-0.578-0.12-0.86
			c-1.59-7.001-3.166-14.004-4.756-21.004c-0.84-2.905-1.891-5.752-2.548-8.71c-0.426-1.987-1.148-3.884-1.776-5.81
			c-0.79-2.529-1.781-4.984-2.73-7.455c-0.34-1.1-0.53-2.238-0.812-3.353c-0.189-0.709-0.264-1.457-0.59-2.122
			c-1.466,0.776-2.969,1.52-4.607,1.848c-3.43,0.655-6.978,1.335-10.464,0.69c-4.486-1.1-8.954-2.284-13.495-3.138
			c-3.879-0.799-7.743-1.671-11.604-2.543c-3.547-0.731-7.2-1.045-10.62-2.306c-2.659-0.972-5.539-1.209-8.348-0.957
			C139.315,68.502,137.669,68.589,136.138,69.154 M86.713,89.208c-0.436,1.141-0.881,2.279-1.316,3.42
			c-0.678,1.69-1.195,3.438-1.787,5.161c-0.396,1.232-0.87,2.44-1.159,3.702c-0.451,1.754-0.831,3.528-1.419,5.247
			c-0.563,1.909-1.274,3.779-1.669,5.736c-1.54,6.808-3.079,13.617-4.621,20.424c-0.108,0.516-0.271,1.023-0.291,1.556
			c-0.114,2.28-0.207,4.559-0.326,6.839c-0.034,0.346,0.01,0.693,0.109,1.029c0.956-0.319,1.901-0.677,2.854-1.011
			c0.217-0.617,0.517-1.223,1.007-1.666c0.278-0.227,0.573-0.579,0.968-0.521c0.447,0.56,1.206,0.583,1.825,0.849
			c3.901,1.41,7.172,4.047,10.283,6.713c0.414-0.58,0.801-1.199,1.36-1.656c0.857-0.717,1.938-1.066,2.971-1.447
			c1.619-0.53,3.365-0.898,5.064-0.578c1.898,0.384,3.525,1.615,4.688,3.129c1.108,1.426,1.851,3.094,2.462,4.783
			c0.576-0.24,1.149-0.492,1.756-0.654c1.077-0.307,2.214-0.248,3.319-0.189c1.714,0.047,3.252,0.984,4.516,2.072
			c0.783,0.65,1.202,1.59,1.686,2.459c0.334,0.617,0.655,1.242,0.894,1.904c0.559,1.514,0.632,3.174,0.416,4.762
			c-0.132,0.984-0.564,1.891-1.023,2.762c0.651,0.053,1.309,0.08,1.954,0.193c0.36,0.057,0.725,0.172,1.093,0.082
			c1.093-0.121,2.203-0.031,3.291,0.123c0.49,0.229,0.402,0.832,0.748,1.174c2.661,3,4.62,6.594,7.612,9.303
			c0.699-0.428,1.581-0.734,2.366-0.324c1.235,0.646,2.337,1.52,3.517,2.26c0.9,0.545,1.709,1.342,2.8,1.471
			c1.672,0.238,3.454,0.061,4.964-0.732c0.623-0.324,1.334-0.496,1.908-0.902c0.485-1.227,0.943-2.529,0.908-3.863
			c-1.821-1.332-3.507-2.828-5.22-4.285c-2.078-1.748-4.286-3.334-6.471-4.941c-1.483-0.705-3.177-0.668-4.771-0.918
			c0.039-0.605,0.167-1.197,0.268-1.791c1.864,0.275,3.878,0.25,5.549,1.225c1.348,0.965,2.669,1.969,3.996,2.963
			c2.396,1.779,4.558,3.848,6.919,5.68c0.578,0.422,1.119,0.932,1.813,1.168c1.612,0.615,3.148,1.42,4.771,2.008
			c0.808,0.201,1.626,0.355,2.445,0.502c1.473,0.23,2.88-0.373,4.267-0.773c0.587-0.203,1.232-0.375,1.668-0.85
			c0.523-0.564,1.137-1.096,1.42-1.834c0.305-0.932,0.478-1.914,0.979-2.771c0.167-0.699,0.032-1.443-0.052-2.15
			c-2.576-1.025-4.85-2.684-6.904-4.521c-2.13-1.914-4.136-3.963-6.211-5.932c-2.204-2.076-4.496-4.1-7.136-5.609
			c0.275-0.541,0.586-1.061,0.894-1.582c4.397,2.537,7.886,6.287,11.517,9.768c2.283,2.205,4.68,4.381,7.563,5.779
			c2.514,1.25,5.366,1.771,8.165,1.615c0.339-0.049,0.643-0.227,0.947-0.375c1.229-0.635,2.403-1.434,3.293-2.504
			c0.677-0.787,1-1.793,1.368-2.746c0.681-1.85,0.749-3.846,0.725-5.793c-0.046-1.139-0.515-2.207-1.063-3.186
			c-0.821-1.471-1.94-2.75-2.709-4.252c-0.157-0.318-0.348-0.625-0.635-0.844c-1.7-1.445-3.218-3.087-4.832-4.624
			c-0.694-0.089-1.286-0.479-1.896-0.791c-1.801-0.963-3.478-2.135-5.16-3.284c-0.635-0.269-1.061-0.824-1.637-1.178
			c-0.664-0.484-1.369-0.908-2.009-1.421c-0.257-0.567,0.466-1.128,1.011-0.944c0.267-0.456,0.538-0.905,0.777-1.375
			c0.736,0.293,1.386,0.765,2.084,1.135c2.929,1.675,5.845,3.383,8.6,5.329c4.386,3.022,8.025,7.063,12.747,9.601
			c2.728,1.322,5.62,2.291,8.566,2.992c0.595,0.195,1.151-0.205,1.605-0.541c1.228-0.969,2.192-2.25,2.881-3.648
			c0.675-1.26,1.276-2.615,1.303-4.067c0.019-1.464,0.015-2.958-0.388-4.378c-0.932-2.714-2.141-5.44-4.236-7.468
			c-1.685-1.668-3.186-3.533-5.061-5.002c-2.204-1.796-4.543-3.421-6.972-4.892c-2.99-1.875-5.922-3.837-8.836-5.822
			c-4.397-2.974-8.714-6.072-13.288-8.772c-5.455-3.245-11.071-6.258-16.169-10.059c-2.957-2.194-6.384-3.626-9.846-4.816
			c-1.75-0.713-3.665-0.319-5.492-0.325c-0.766-0.031-1.467,0.325-2.184,0.531c-6.564,2.253-12.265,6.321-18.441,9.382
			c-3.261,1.635-6.665,2.958-10.118,4.122c-1.125,0.434-2.353,0.174-3.491-0.059c-1.014-0.259-2.104-0.538-2.855-1.314
			c-0.665-0.669-1.352-1.344-1.811-2.178c-0.591-1.119-0.525-2.425-0.539-3.65c-0.003-1.357,0.963-2.441,1.888-3.326
			c1.458-1.349,3.146-2.414,4.825-3.464c1.019-0.646,2.104-1.216,2.984-2.056c0.965-0.914,1.815-1.956,2.496-3.1
			c-3.542,0.358-7.12,0.407-10.661,0.013c-2.012-0.225-4.042-0.442-5.984-1.043C87.247,86.613,87.122,87.953,86.713,89.208
			 M79.383,148.249c0.163,0.668,0.353,1.49,1.046,1.803c1.763,0.807,3.572,1.607,5.513,1.844c1.732,0.199,3.281-0.756,4.872-1.273
			c-0.023,2.58,0.176,5.164,0.612,7.705c0.099,0.66,0.513,1.236,1.103,1.553c1.21,0.688,2.356,1.529,3.7,1.955
			c0.948,0.311,1.937,0.486,2.919,0.668c0.391,0.105,0.762-0.107,1.092-0.291c1.233-0.754,2.235-1.893,3.577-2.453
			c0.057,0.895,0.177,1.787,0.169,2.686c0.033,1.041-0.047,2.168,0.498,3.105c0.586,1.012,1.418,1.848,2.099,2.791
			c0.333,0.488,0.902,0.725,1.431,0.943c1.763,0.678,3.641,0.949,5.473,1.359c1.28,0.348,2.405,1.09,3.499,1.814
			c0.971,0.688,1.932,1.41,2.726,2.303c0.777,0.867,1.152,2.063,2.084,2.789c0.646,0.148,1.316,0.168,1.972,0.275
			c2.971,0.484,5.94-0.609,8.508-2.016c-2.154-2.076-3.809-4.588-5.608-6.957c-0.283-0.354-0.514-0.799-0.982-0.924
			c-1.49-0.846-3.047-1.662-4.763-1.924c-1.623-0.234-3.269-0.172-4.903-0.186c0.604-1.061,1.314-2.059,1.901-3.127
			c0.667-1.146,0.746-2.516,0.645-3.805c-0.077-1.26-0.613-2.426-1.222-3.51c-0.376-0.645-0.649-1.385-1.24-1.875
			c-0.731-0.652-1.584-1.186-2.517-1.49c-0.851-0.186-1.731-0.195-2.599-0.174c-1.607,0.098-2.98,1.025-4.417,1.652
			c-0.562-2.096-1.27-4.197-2.55-5.975c-0.932-1.307-2.257-2.432-3.864-2.748c-1.659-0.238-3.318,0.23-4.854,0.82
			c-0.73,0.289-1.512,0.598-2.002,1.244c-0.622,0.816-1.088,1.738-1.595,2.627c-0.667-0.404-1.191-0.996-1.805-1.469
			c-3.18-2.721-6.554-5.444-10.638-6.646C79.198,143.641,78.961,145.971,79.383,148.249L79.383,148.249z"/>
	</defs>
	<defs>
		<path id="SVGID_8_" d="M239.176,134.184c1.727-0.303,3.452-0.619,5.184-0.897c0.539,1.582,1.086,3.164,1.604,4.753
			c0.493,1.687,0.975,3.376,1.464,5.063c0.342,1.208,0.773,2.397,0.932,3.651c0.277,1.924,0.641,3.84,0.898,5.766
			c0.07,0.252-0.258,0.291-0.417,0.359c-1.116,0.324-2.32,0.412-3.45,0.109c-1.841-0.492-3.605-1.396-4.934-2.783
			c-1.975-2.045-3.324-4.582-4.584-7.104c-0.657-1.327-1.174-2.727-1.946-3.992c-0.468-0.842-1.014-1.658-1.289-2.589
			c-0.148-0.334,0.119-0.626,0.27-0.901C235.002,135.168,237.079,134.625,239.176,134.184z"/>
	</defs>
	<defs>
		<path id="SVGID_9_" d="M257.462,136.328c1.95-0.414,3.894,1.525,3.514,3.472c-0.19,1.697-2.054,2.93-3.695,2.5
			c-1.164-0.317-2.196-1.305-2.33-2.533C254.661,138.198,255.901,136.561,257.462,136.328L257.462,136.328z"/>
	</defs>
	<defs>
		<path id="SVGID_10_" d="M29.863,146.995c0.923-0.178,2.003-0.178,2.721,0.527c1.31,0.824,1.55,2.729,0.8,4.008
			c-0.739,1.199-2.365,1.738-3.68,1.236c-0.794-0.258-1.415-0.91-1.737-1.666c-0.351-0.783-0.179-1.674,0.03-2.469
			C28.389,147.897,29.052,147.247,29.863,146.995L29.863,146.995z"/>
	</defs>
	<defs>
		<path id="SVGID_11_" d="M43.417,142.229c1.085,0.134,2.154,0.367,3.233,0.542c1.341,0.249,2.697,0.431,4.018,0.786
			c-0.698,1.867-1.085,3.877-2.161,5.584c-0.985,1.9-2.08,3.736-3.222,5.545c-0.545,0.828-0.958,1.756-1.669,2.467
			c-0.916,0.91-1.828,1.826-2.746,2.734c-0.533,0.525-1.03,1.092-1.629,1.545c0.183-1.002,0.604-1.938,0.839-2.922
			c0.699-2.453,0.914-5,1.569-7.461C42.259,148.112,42.823,145.168,43.417,142.229L43.417,142.229z"/>
	</defs>
	<linearGradient id="SVGID_12_" gradientUnits="userSpaceOnUse" x1="202.3892" y1="94.0444" x2="285.2974" y2="94.0444">
		<stop  offset="0" style="stop-color:#FFF33B"/>
		<stop  offset="0.0595" style="stop-color:#FFE029"/>
		<stop  offset="0.1303" style="stop-color:#FFD218"/>
		<stop  offset="0.2032" style="stop-color:#FEC90F"/>
		<stop  offset="0.2809" style="stop-color:#FDC70C"/>
		<stop  offset="0.6685" style="stop-color:#F3903F"/>
		<stop  offset="0.8876" style="stop-color:#ED683C"/>
		<stop  offset="1" style="stop-color:#E93E3A"/>
	</linearGradient>
	<use xlink:href="#SVGID_1_"  overflow="visible" fill="url(#SVGID_12_)"/>
	<linearGradient id="SVGID_13_" gradientUnits="userSpaceOnUse" x1="0.8999" y1="105.8149" x2="71.1372" y2="105.8149">
		<stop  offset="0" style="stop-color:#FFF33B"/>
		<stop  offset="0.0595" style="stop-color:#FFE029"/>
		<stop  offset="0.1303" style="stop-color:#FFD218"/>
		<stop  offset="0.2032" style="stop-color:#FEC90F"/>
		<stop  offset="0.2809" style="stop-color:#FDC70C"/>
		<stop  offset="0.6685" style="stop-color:#F3903F"/>
		<stop  offset="0.8876" style="stop-color:#ED683C"/>
		<stop  offset="1" style="stop-color:#E93E3A"/>
	</linearGradient>
	<use xlink:href="#SVGID_2_"  overflow="visible" fill="url(#SVGID_13_)"/>
	<linearGradient id="SVGID_14_" gradientUnits="userSpaceOnUse" x1="93.9517" y1="100.8726" x2="213.4155" y2="100.8726">
		<stop  offset="0" style="stop-color:#FFF33B"/>
		<stop  offset="0.0595" style="stop-color:#FFE029"/>
		<stop  offset="0.1303" style="stop-color:#FFD218"/>
		<stop  offset="0.2032" style="stop-color:#FEC90F"/>
		<stop  offset="0.2809" style="stop-color:#FDC70C"/>
		<stop  offset="0.6685" style="stop-color:#F3903F"/>
		<stop  offset="0.8876" style="stop-color:#ED683C"/>
		<stop  offset="1" style="stop-color:#E93E3A"/>
	</linearGradient>
	<use xlink:href="#SVGID_3_"  overflow="visible" fill="url(#SVGID_14_)"/>
	<linearGradient id="SVGID_15_" gradientUnits="userSpaceOnUse" x1="74.1133" y1="131.8911" x2="201.8794" y2="131.8911">
		<stop  offset="0" style="stop-color:#FFF33B"/>
		<stop  offset="0.0595" style="stop-color:#FFE029"/>
		<stop  offset="0.1303" style="stop-color:#FFD218"/>
		<stop  offset="0.2032" style="stop-color:#FEC90F"/>
		<stop  offset="0.2809" style="stop-color:#FDC70C"/>
		<stop  offset="0.6685" style="stop-color:#F3903F"/>
		<stop  offset="0.8876" style="stop-color:#ED683C"/>
		<stop  offset="1" style="stop-color:#E93E3A"/>
	</linearGradient>
	<use xlink:href="#SVGID_4_"  overflow="visible" fill="url(#SVGID_15_)"/>
	<linearGradient id="SVGID_16_" gradientUnits="userSpaceOnUse" x1="79.1382" y1="159.6421" x2="132.2739" y2="159.6421">
		<stop  offset="0" style="stop-color:#FFF33B"/>
		<stop  offset="0.0595" style="stop-color:#FFE029"/>
		<stop  offset="0.1303" style="stop-color:#FFD218"/>
		<stop  offset="0.2032" style="stop-color:#FEC90F"/>
		<stop  offset="0.2809" style="stop-color:#FDC70C"/>
		<stop  offset="0.6685" style="stop-color:#F3903F"/>
		<stop  offset="0.8876" style="stop-color:#ED683C"/>
		<stop  offset="1" style="stop-color:#E93E3A"/>
	</linearGradient>
	<use xlink:href="#SVGID_5_"  overflow="visible" fill="url(#SVGID_16_)"/>
	<linearGradient id="SVGID_17_" gradientUnits="userSpaceOnUse" x1="285.2593" y1="83.5293" x2="285.4116" y2="83.5293">
		<stop  offset="0" style="stop-color:#FFF33B"/>
		<stop  offset="0.0595" style="stop-color:#FFE029"/>
		<stop  offset="0.1303" style="stop-color:#FFD218"/>
		<stop  offset="0.2032" style="stop-color:#FEC90F"/>
		<stop  offset="0.2809" style="stop-color:#FDC70C"/>
		<stop  offset="0.6685" style="stop-color:#F3903F"/>
		<stop  offset="0.8876" style="stop-color:#ED683C"/>
		<stop  offset="1" style="stop-color:#E93E3A"/>
	</linearGradient>
	<use xlink:href="#SVGID_6_"  overflow="visible" fill="url(#SVGID_17_)"/>
	<linearGradient id="SVGID_18_" gradientUnits="userSpaceOnUse" x1="43.4165" y1="123.9497" x2="244.3599" y2="123.9497">
		<stop  offset="0" style="stop-color:#FFF33B"/>
		<stop  offset="0.0595" style="stop-color:#FFE029"/>
		<stop  offset="0.1303" style="stop-color:#FFD218"/>
		<stop  offset="0.2032" style="stop-color:#FEC90F"/>
		<stop  offset="0.2809" style="stop-color:#FDC70C"/>
		<stop  offset="0.6685" style="stop-color:#F3903F"/>
		<stop  offset="0.8876" style="stop-color:#ED683C"/>
		<stop  offset="1" style="stop-color:#E93E3A"/>
	</linearGradient>
	<use xlink:href="#SVGID_7_"  display="none" overflow="visible" fill="url(#SVGID_18_)"/>
	<linearGradient id="SVGID_19_" gradientUnits="userSpaceOnUse" x1="232.5952" y1="143.231" x2="249.2681" y2="143.231">
		<stop  offset="0" style="stop-color:#FFF33B"/>
		<stop  offset="0.0595" style="stop-color:#FFE029"/>
		<stop  offset="0.1303" style="stop-color:#FFD218"/>
		<stop  offset="0.2032" style="stop-color:#FEC90F"/>
		<stop  offset="0.2809" style="stop-color:#FDC70C"/>
		<stop  offset="0.6685" style="stop-color:#F3903F"/>
		<stop  offset="0.8876" style="stop-color:#ED683C"/>
		<stop  offset="1" style="stop-color:#E93E3A"/>
	</linearGradient>
	<use xlink:href="#SVGID_8_"  overflow="visible" fill="url(#SVGID_19_)"/>
	<linearGradient id="SVGID_20_" gradientUnits="userSpaceOnUse" x1="254.9087" y1="139.3286" x2="261.0239" y2="139.3286">
		<stop  offset="0" style="stop-color:#FFF33B"/>
		<stop  offset="0.0595" style="stop-color:#FFE029"/>
		<stop  offset="0.1303" style="stop-color:#FFD218"/>
		<stop  offset="0.2032" style="stop-color:#FEC90F"/>
		<stop  offset="0.2809" style="stop-color:#FDC70C"/>
		<stop  offset="0.6685" style="stop-color:#F3903F"/>
		<stop  offset="0.8876" style="stop-color:#ED683C"/>
		<stop  offset="1" style="stop-color:#E93E3A"/>
	</linearGradient>
	<use xlink:href="#SVGID_9_"  overflow="visible" fill="url(#SVGID_20_)"/>
	<linearGradient id="SVGID_21_" gradientUnits="userSpaceOnUse" x1="27.7651" y1="149.9243" x2="33.8052" y2="149.9243">
		<stop  offset="0" style="stop-color:#FFF33B"/>
		<stop  offset="0.0595" style="stop-color:#FFE029"/>
		<stop  offset="0.1303" style="stop-color:#FFD218"/>
		<stop  offset="0.2032" style="stop-color:#FEC90F"/>
		<stop  offset="0.2809" style="stop-color:#FDC70C"/>
		<stop  offset="0.6685" style="stop-color:#F3903F"/>
		<stop  offset="0.8876" style="stop-color:#ED683C"/>
		<stop  offset="1" style="stop-color:#E93E3A"/>
	</linearGradient>
	<use xlink:href="#SVGID_10_"  overflow="visible" fill="url(#SVGID_21_)"/>
	<linearGradient id="SVGID_22_" gradientUnits="userSpaceOnUse" x1="39.2407" y1="151.8306" x2="50.6675" y2="151.8306">
		<stop  offset="0" style="stop-color:#FFF33B"/>
		<stop  offset="0.0595" style="stop-color:#FFE029"/>
		<stop  offset="0.1303" style="stop-color:#FFD218"/>
		<stop  offset="0.2032" style="stop-color:#FEC90F"/>
		<stop  offset="0.2809" style="stop-color:#FDC70C"/>
		<stop  offset="0.6685" style="stop-color:#F3903F"/>
		<stop  offset="0.8876" style="stop-color:#ED683C"/>
		<stop  offset="1" style="stop-color:#E93E3A"/>
	</linearGradient>
	<use xlink:href="#SVGID_11_"  overflow="visible" fill="url(#SVGID_22_)"/>
	<clipPath id="SVGID_23_">
		<use xlink:href="#SVGID_1_"  overflow="visible"/>
	</clipPath>
	<clipPath id="SVGID_24_" clip-path="url(#SVGID_23_)">
		<use xlink:href="#SVGID_2_"  overflow="visible"/>
	</clipPath>
	<clipPath id="SVGID_25_" clip-path="url(#SVGID_24_)">
		<use xlink:href="#SVGID_3_"  overflow="visible"/>
	</clipPath>
	<clipPath id="SVGID_26_" clip-path="url(#SVGID_25_)">
		<use xlink:href="#SVGID_4_"  overflow="visible"/>
	</clipPath>
	<clipPath id="SVGID_27_" clip-path="url(#SVGID_26_)">
		<use xlink:href="#SVGID_5_"  overflow="visible"/>
	</clipPath>
	<clipPath id="SVGID_28_" clip-path="url(#SVGID_27_)">
		<use xlink:href="#SVGID_6_"  overflow="visible"/>
	</clipPath>
	<clipPath id="SVGID_29_" clip-path="url(#SVGID_28_)">
		<use xlink:href="#SVGID_7_"  display="none" overflow="visible"/>
	</clipPath>
	<clipPath id="SVGID_30_" clip-path="url(#SVGID_29_)">
		<use xlink:href="#SVGID_8_"  overflow="visible"/>
	</clipPath>
	<clipPath id="SVGID_31_" clip-path="url(#SVGID_30_)">
		<use xlink:href="#SVGID_9_"  overflow="visible"/>
	</clipPath>
	<clipPath id="SVGID_32_" clip-path="url(#SVGID_31_)">
		<use xlink:href="#SVGID_10_"  overflow="visible"/>
	</clipPath>
	<clipPath id="SVGID_33_" clip-path="url(#SVGID_32_)">
		<use xlink:href="#SVGID_11_"  overflow="visible"/>
	</clipPath>
	<g clip-path="url(#SVGID_33_)">
		<linearGradient id="SVGID_34_" gradientUnits="userSpaceOnUse" x1="0" y1="108.0229" x2="286.312" y2="108.0229">
			<stop  offset="0" style="stop-color:#FFF33B"/>
			<stop  offset="0.0595" style="stop-color:#FFE029"/>
			<stop  offset="0.1303" style="stop-color:#FFD218"/>
			<stop  offset="0.2032" style="stop-color:#FEC90F"/>
			<stop  offset="0.2809" style="stop-color:#FDC70C"/>
			<stop  offset="0.6685" style="stop-color:#F3903F"/>
			<stop  offset="0.8876" style="stop-color:#ED683C"/>
			<stop  offset="1" style="stop-color:#E93E3A"/>
		</linearGradient>
		<rect y="0.701" fill="url(#SVGID_34_)" width="286.312" height="214.643"/>
	</g>
</g>
</svg>
