<?xml version="1.0" encoding="utf-8"?>
<!-- Generator: Adobe Illustrator 16.0.0, SVG Export Plug-In . SVG Version: 6.00 Build 0)  -->
<!DOCTYPE svg PUBLIC "-//W3C//DTD SVG 1.1//EN" "http://www.w3.org/Graphics/SVG/1.1/DTD/svg11.dtd">
<svg version="1.1" xmlns="http://www.w3.org/2000/svg" xmlns:xlink="http://www.w3.org/1999/xlink" x="0px" y="0px"
	 width="286.312px" height="215.344px" viewBox="0 0 286.312 215.344" enable-background="new 0 0 286.312 215.344"
	 xml:space="preserve">
<g id="Warstwa_2">
</g>
<g id="Warstwa_1">
	<g>
		<defs>
			<path id="SVGID_1_" d="M86.5,3.956c0,0,0.231,2.019,0.709,6.052c0.474,4.135,1.182,6.788,2.131,7.972
				c3.028-0.195,5.538-1.772,7.524-4.726c3.692-5.212,5.348-7.673,4.97-7.38c1.134,0.296,1.513,2.018,1.134,5.167
				c-0.378,3.641-0.142,5.955,0.712,6.938c1.229,0.197,2.414-0.1,3.548-0.885c1.23-0.789,2.464-1.086,3.693-0.888
				c-1.702,1.277-2.272,3.198-1.702,5.756c0.567,2.558,2.033,3.741,4.402,3.544c-0.283,0.49-1.421,1.33-3.409,2.51
				c-0.946,0.492-0.709,1.524,0.709,3.102c-3.126,1.374-8.802,1.966-17.041,1.77c0.949,1.673,3.315,3.1,7.103,4.282
				c3.881,1.181,6.296,2.558,7.243,4.133c-1.044,0.59-1.42,1.523-1.14,2.805c0.192,1.278-0.048,2.215-0.709,2.803
				c0.473,0.984,2.792,3.497,6.961,7.531c3.025,2.951,4.308,5.756,3.834,8.41c0.567,0.688,3.924,5.465,10.078,14.322
				c4.83,7.081,9.232,12.25,13.206,15.497c11.171,9.057,19.832,12.153,25.985,9.299c2.463-2.065,3.694-4.229,3.694-6.494
				c-0.096,0,1.084,0.295,3.548,0.885c1.991-2.558,3.455-5.655,4.401-9.301c-0.566,0,1.229,0.937,5.397,2.806
				c1.984-1.278,7.146-5.951,15.476-14.021c6.249-6.006,11.878-9.4,16.899-10.188c-0.192,2.461-0.808,4.922-1.847,7.383
				c1.701,0.195,4.066,0,7.1-0.593c2.838-0.492,5.254-0.588,7.24-0.295c-0.094,2.855-1.561,5.314-4.402,7.383
				c0,0.686,0.71,1.181,2.132,1.474c1.137,0.395,1.609,1.184,1.42,2.361c-0.566,0.298-1.657,0.885-3.267,1.774
				c-1.327,0.687-2.365,1.278-3.123,1.77c-2.272,1.576-3.742,3.495-4.399,5.757c0.468,0.787,1.935,1.083,4.399,0.885
				c2.648-0.098,4.165,0.198,4.545,0.887c0.09,1.084-0.809,1.721-2.7,1.918c-1.798,0.198-2.699,0.839-2.699,1.92
				c5.873,2.659,9.467,9.152,10.794,19.484h-5.395c1.419,1.576,1.562,3.299,0.425,5.164c-1.422,2.363-1.847,4.68-1.281,6.938
				c-1.796,2.264-5.961,3.202-12.493,2.805c-0.566,0.594-0.995,1.873-1.276,3.84c-0.38,1.971-0.854,3.199-1.421,3.688
				c-0.757-0.392-1.61-1.377-2.552-2.946c-0.949-1.479-1.897-2.364-2.844-2.664c-0.665,0.1-0.995,0.84-0.995,2.217
				c-0.091,1.476-0.381,2.313-0.853,2.511c-5.773-3.739-8.185-5.609-7.239-5.609c-0.851,0.492-0.9,1.278-0.143,2.36
				c0.944,1.477,1.324,2.561,1.135,3.249c0.474-0.1-1.325-0.738-5.395-1.923c-1.233,0.988-2.322,3.3-3.267,6.939
				c-0.851,3.644-1.844,6.005-2.981,7.087c-0.762-0.197-1.374-2.065-1.847-5.608c-0.566-3.346-1.752-5.215-3.551-5.612
				c-0.473,0.299-4.308,4.775-11.501,13.432c-4.642,5.711-10.367,7.433-17.181,5.169c-0.191,1.379,0.284,2.758,1.419,4.134
				c1.039,1.379,1.471,2.805,1.278,4.281c0.192,1.38-0.333,2.264-1.563,2.658c-1.796,0.589-2.792,0.936-2.979,1.029
				c1.322,4.034,0.474,8.809-2.558,14.32c-2.937,5.51-3.886,9.794-2.842,12.843c0.944,2.559,4.308,4.187,10.084,4.869
				c5.585,0.594,8.802,2.664,9.656,6.201c-5.873-1.673-9.991-2.508-12.355-2.508c-4.924,0-7.385,2.411-7.385,7.233
				c-3.41-3.446-8.754-4.528-16.044-3.248l-18.032,3.248c0.945-1.87,3.356-3.1,7.238-3.691c4.923-0.688,7.904-1.327,8.946-1.918
				c-0.189-0.886-1.561-1.184-4.119-0.886c-2.363,0.291-3.403-0.344-3.12-1.921c6.625,1.477,11.736,0.691,15.335-2.36
				c3.029-2.658,4.59-6.643,4.686-11.957c0.094-4.92-1.044-9.593-3.41-14.022c-2.553-4.724-5.679-7.727-9.371-9.008
				c-0.476,1.676-1.703,4.875-3.688,9.597c-1.991,4.622-3.268,8.117-3.835,10.482c-1.896,8.068,1.182,12.597,9.229,13.579
				c-0.854,0.986-2.274,1.179-4.26,0.59c-2.557-0.786-4.402-0.985-5.537-0.59c-0.572,0.788-1.66,1.868-3.27,3.25
				c-1.516,1.176-2.509,2.263-2.981,3.246c-3.126-1.574-7.617-1.523-13.489,0.146c-6.724,1.97-12.119,2.562-16.189,1.771
				c0.381-2.065,2.369-3.102,5.967-3.102c4.92-0.193,7.712-0.44,8.379-0.734c-1.135-0.983-2.937-1.231-5.395-0.735
				c-3.22,0.688-5.306,0.93-6.251,0.735c1.323-2.265,4.78-3.641,10.369-4.135c6.435-0.493,10.454-1.282,12.065-2.361
				c4.923-8.465,5.729-17.074,2.417-25.832c-1.141-3.05-5.54-10.579-13.206-22.586c-1.046-1.674-5.495-5.708-13.349-12.104
				c-6.817-5.511-12.874-12.448-18.175-20.815c-5.489-8.855-8.147-16.236-7.953-22.142c0.093-2.065,1.467-5.951,4.116-11.662
				c2.178-4.623,2.608-8.512,1.278-11.658c-0.759-0.593-1.751-0.739-2.98-0.443c-1.229,0.294-2.321,0.146-3.265-0.444
				c0.283-4.92,2.698-8.364,7.239-10.33c0.286-1.185-0.143-1.973-1.276-2.362c-1.23-0.494-1.703-1.232-1.419-2.215
				c3.977-2.854,6.34-5.659,7.097-8.414c-0.473-1.572-1.229-2.067-2.27-1.477c-1.704,0.984-2.747,1.477-3.126,1.477
				c0.095-4.233,0.994-6.743,2.701-7.528c-2.842-5.218-4.597-8.76-5.259-10.629c-1.607-4.821-1.323-9.055,0.856-12.694
				c0.661,0.393,1.561,1.477,2.695,3.246c0.948,1.576,2.132,2.361,3.551,2.361c-0.757,0.692-0.473-3.05,0.851-11.218
				c1.707,0.197,3.221,2.065,4.543,5.61c1.327-0.195,1.945-1.868,1.851-5.019c-0.193-3.445,0.095-5.465,0.851-6.051
				c1.513,0.196,2.556,1.374,3.123,3.539c0.191,0.495,0.375,1.479,0.569,2.954c0.284,1.18,0.518,2.116,0.709,2.804
				c1.705-0.984,2.981-3.101,3.835-6.348c1.229-4.427,2.036-6.987,2.411-7.676C85.933,3.364,86.5,3.956,86.5,3.956"/>
		</defs>
		<clipPath id="SVGID_2_">
			<use xlink:href="#SVGID_1_"  overflow="visible"/>
		</clipPath>
		<linearGradient id="SVGID_3_" gradientUnits="userSpaceOnUse" x1="0" y1="108.0229" x2="286.312" y2="108.0229">
			<stop  offset="0" style="stop-color:#FFF33B"/>
			<stop  offset="0.0595" style="stop-color:#FFE029"/>
			<stop  offset="0.1303" style="stop-color:#FFD218"/>
			<stop  offset="0.2032" style="stop-color:#FEC90F"/>
			<stop  offset="0.2809" style="stop-color:#FDC70C"/>
			<stop  offset="0.6685" style="stop-color:#F3903F"/>
			<stop  offset="0.8876" style="stop-color:#ED683C"/>
			<stop  offset="1" style="stop-color:#E93E3A"/>
		</linearGradient>
		<rect y="0.701" clip-path="url(#SVGID_2_)" fill="url(#SVGID_3_)" width="286.312" height="214.643"/>
	</g>
</g>
</svg>
