<?xml version="1.0" encoding="utf-8"?>
<!-- Generator: Adobe Illustrator 16.0.0, SVG Export Plug-In . SVG Version: 6.00 Build 0)  -->
<!DOCTYPE svg PUBLIC "-//W3C//DTD SVG 1.1//EN" "http://www.w3.org/Graphics/SVG/1.1/DTD/svg11.dtd">
<svg version="1.1" id="Warstwa_1" xmlns="http://www.w3.org/2000/svg" xmlns:xlink="http://www.w3.org/1999/xlink" x="0px" y="0px"
	 width="286.312px" height="215.344px" viewBox="0 0 286.312 215.344" enable-background="new 0 0 286.312 215.344"
	 xml:space="preserve">
<g>
	<defs>
		<path id="SVGID_1_" d="M223.886,93.799c5.387,2,16.006,4.896,31.86,8.694c13.648,3.298,23.834,6.594,30.565,9.892
			c-48.347,29.871-83.999,64.196-106.969,102.959c-5.097-1.1-8.891-2.348-11.392-3.745c16.053-24.676,32.196-44.41,48.438-59.199
			c20.184-18.384,42.768-31.472,67.759-39.269c-5.672-2.895-12.108-4.143-19.316-3.748c-30.76,1.604-60.023,13.241-87.799,34.921
			c-15.472,12.091-35.992,33.023-61.56,62.8c-2.593,0.196-5.24,0.148-7.926-0.15c-2.981-0.399-5.336-0.603-7.063-0.603
			c27.483-31.573,50.118-53.599,67.899-66.089c29.316-20.485,62.186-31.273,98.611-32.375
			c-38.925-11.789-82.465-2.845-130.614,26.828c-29.412,18.187-53.583,38.117-72.518,59.797c-3.364-1.195-6.967-1.696-10.813-1.499
			c29.218-29.37,53.87-50.154,73.958-62.347c31.14-18.879,66.078-28.974,104.808-30.272c-40.752-6.093-80.153-1.598-118.214,13.489
			c-32.869,12.987-61.178,32.122-84.916,57.401c-0.575-0.202-2.066-1.002-4.47-2.399c-1.824-0.997-3.458-1.696-4.901-2.096
			c27.776-24.981,56.563-43.264,86.357-54.853c36.907-14.391,77.276-19.436,121.1-15.14c-37.482-10.291-76.794-11.64-117.927-4.045
			c-38.158,7.093-69.874,20.081-95.152,38.966c-0.479,0.4-1.438,1.249-2.879,2.55c-1.35,1.2-2.452,2.096-3.319,2.698
			C4.707,138.86,2.208,139.11,0,137.712c0.479-2.4,2.449-4.896,5.908-7.493c1.06-0.8,2.597-1.797,4.615-2.997
			c2.5-1.601,4.036-2.55,4.612-2.848c9.806-6.593,15.764-10.342,17.877-11.243c-2.212-1.194-3.41-2.895-3.604-5.092
			c-0.095-2,0.527-3.898,1.873-5.695c1.445-1.797,3.222-2.947,5.335-3.448c2.308-0.499,4.471,0,6.488,1.499
			c-1.441-5.595-0.24-10.542,3.605-14.837c3.46-3.794,8.12-6.293,13.984-7.494c5.957-1.197,11.1-0.6,15.425,1.8
			c4.901,2.696,7.494,7.093,7.785,13.186c17.782-3.096,26.189-4.594,25.228-4.495V62.478c-0.193-1.198-0.625-1.848-1.297-1.946
			c-0.287-0.102-1.059,0.048-2.307,0.447c0.193-0.399,10.957-12.087,32.292-35.068c4.71-0.2,14.511,0.05,29.412,0.75
			c0.771,0,3.317-0.149,7.643-0.451c3.264-0.298,5.717-0.149,7.352,0.451c0.576,0.098,5.624,5.543,15.137,16.335
			c1.346,1.597,3.842,4.493,7.498,8.693c2.88,3.397,5.139,5.995,6.776,7.792c0.188,0.799-0.291,1.248-1.443,1.349
			c-1.346,0.098-2.019,0.399-2.019,0.898v28.325c1.248,1.4,3.843,2.149,7.786,2.249v-23.68V42.995c0.577,1,1.345,2.648,2.305,4.946
			c1.059,2.798,1.874,4.744,2.451,5.843c2.21,4.499,4.95,6.896,8.22,7.194c2.305,0.102,4.272-0.6,5.91-2.099
			c1.439-1.397,2.253-3.146,2.45-5.248c0.285-2.194-0.146-4.144-1.298-5.843c-1.249-1.797-3.125-2.896-5.625-3.295
			c5.192-3.598,8.024-5.646,8.508-6.145c2.786-2.698,3.985-5.845,3.607-9.442c-0.29-3.896-2.507-6.494-6.635-7.795
			c-4.133-1.397-7.88-0.549-11.242,2.55c1.823-3.997,1.776-7.446-0.147-10.342c-1.634-2.597-4.279-4.245-7.927-4.946
			c-3.558-0.797-6.683-0.448-9.374,1.05c-2.979,1.598-4.325,4.097-4.034,7.494c0.096,2.693,1.392,4.446,3.893,5.245
			c2.305,0.8,4.323,0.55,6.054-0.75c-0.576,4.296-3.077,6.195-7.498,5.696c-4.323-0.501-6.824-2.648-7.494-6.445
			c-0.772-4.096,0.24-7.944,3.027-11.542c2.595-3.397,5.96-5.693,10.088-6.894c4.232-1.298,8.026-0.949,11.392,1.048
			c3.749,2.299,6.105,6.347,7.063,12.141c5.096-2.498,9.467-2.647,13.12-0.45c3.075,1.797,5.094,4.998,6.056,9.592
			c0.958,4.397,0.67,8.589-0.869,12.588c-1.728,4.296-4.464,6.995-8.213,8.093c3.555,2.099,5.381,5.046,5.478,8.843
			c0,3.397-1.299,6.595-3.895,9.592c-2.597,3.096-5.527,4.845-8.794,5.245c-3.653,0.499-6.772-0.898-9.368-4.197v14.986
			C223.073,85.808,223.313,90.504,223.886,93.799 M37.338,32.505c0.383,0.298-2.933-0.949-9.948-3.747
			c-3.942-1.6-5.912-3.8-5.912-6.595c0-4.096,3.605-6.594,10.813-7.493c6.15-0.702,12.111-0.2,17.879,1.498
			c2.497-4.896,3.219-7.144,2.163-6.744c4.993-0.301,11.771,0.35,20.326,1.947c10.378,2,17.249,3.099,20.613,3.299
			c-3.46,0.997-9.707,0.845-18.74-0.451c-9.708-1.298-16.386-1.647-20.037-1.048c-0.675,0.898-0.53,1.848,0.431,2.848
			c1.152,1.298,1.731,2.346,1.731,3.146c-1.156,0.098-6.106-0.451-14.849-1.647c-5.768-0.8-9.901,0-12.4,2.397
			c0.194,3.496,1.968,5.995,5.333,7.494c1.155,0.498,2.742,0.999,4.759,1.498c2.595,0.699,4.276,1.2,5.047,1.499
			c-0.385,0.799-1.495,1.496-3.318,2.099c-1.827,0.6-2.88,1.349-3.169,2.248c3.364,1.197,9.657,1.349,18.885,0.446
			c9.417-0.896,16.291-0.797,20.615,0.304c-2.501-0.101-10.813,0.848-24.941,2.848c-10.093,1.397-17.589,0.699-22.49-2.099
			C31.664,33.752,34.07,32.505,37.338,32.505 M33.734,110.886c4.229-1.3,11.626-4.098,22.203-8.393
			c10.089-4.296,18.019-7.195,23.786-8.694c-1.441-5.594-5.623-9.239-12.542-10.938c-7.117-1.8-12.308-0.152-15.57,4.944
			c-1.06,1.699-1.683,4.248-1.876,7.646c-0.287,3.794-0.863,6.693-1.729,8.69c-5.959,0.102-9.278,0.25-9.946,0.451
			C34.791,105.288,33.349,107.389,33.734,110.886 M172.276,66.824c-11.728-12.79-23.21-24.682-34.457-35.669
			c-1.056,1.995-5.428,6.544-13.117,13.638c-7.305,6.696-11.341,11.341-12.11,13.938c-0.672,2.797-0.722,7.245-0.146,13.338
			c0.672,6.795,0.725,12.04,0.146,15.736c17.012-2.696,36.906-3.197,59.684-1.499V66.824z M143.587,57.232
			c1.154,2.997,1.345,9.693,0.578,20.083c-1.441,0.6-3.798,0.898-7.063,0.898c-4.523-0.099-7.163-0.15-7.931-0.15
			c-1.54-6.995-1.54-13.938,0-20.832H143.587z M142.869,76.565c1.344-5.395,1.344-10.589,0-15.587
			c-5.287-1.797-8.7-0.848-10.237,2.848c-1.349,3.099-1.297,7.093,0.146,11.989C132.488,75.616,135.851,75.867,142.869,76.565
			 M148.49,15.419c-0.672-2.298,0.048-4.295,2.165-5.995c-5.1,0-9.135-1.25-12.111-3.746c0.767-2.899,3.314-4.547,7.64-4.947
			c1.244-0.102,5.138,0.051,11.677,0.447c2.021,0.201,5.572,0.651,10.666,1.35c4.325,0.698,7.448,1,9.373,0.901
			c-3.56,0.898-9.037,1.099-16.435,0.594c-7.594-0.594-13.119-0.546-16.582,0.155c0.672,0.699,5.481,2.197,14.417,4.496
			c-0.285,0.696-1.296,1.248-3.026,1.647c-1.539,0.499-2.45,1.2-2.739,2.099c2.688,0.998,7.445,1.397,14.272,1.198
			c7.016-0.2,12.059,0.152,15.142,1.051C169.488,17.966,158.004,18.216,148.49,15.419 M141.425,28.907
			c-0.959-0.6,4.759,5.395,17.156,17.984c8.362,8.392,15.285,10.592,20.763,6.595c3.264-2.398,4.226-10.342,2.882-23.829
			C163.29,28.856,149.693,28.609,141.425,28.907 M177.178,64.726c-0.865,6.995,0.335,12.09,3.604,15.288
			c2.88,2.797,6.581,3.646,11.101,2.547c4.419-0.998,7.929-3.397,10.525-7.192c2.881-4.299,3.603-9.093,2.16-14.389
			C196.878,62.677,187.753,63.925,177.178,64.726"/>
	</defs>
	<clipPath id="SVGID_2_">
		<use xlink:href="#SVGID_1_"  overflow="visible"/>
	</clipPath>
	<linearGradient id="SVGID_3_" gradientUnits="userSpaceOnUse" x1="0" y1="108.0229" x2="286.312" y2="108.0229">
		<stop  offset="0" style="stop-color:#FFF33B"/>
		<stop  offset="0.0595" style="stop-color:#FFE029"/>
		<stop  offset="0.1303" style="stop-color:#FFD218"/>
		<stop  offset="0.2032" style="stop-color:#FEC90F"/>
		<stop  offset="0.2809" style="stop-color:#FDC70C"/>
		<stop  offset="0.6685" style="stop-color:#F3903F"/>
		<stop  offset="0.8876" style="stop-color:#ED683C"/>
		<stop  offset="1" style="stop-color:#E93E3A"/>
	</linearGradient>
	<rect y="0.701" clip-path="url(#SVGID_2_)" fill="url(#SVGID_3_)" width="286.312" height="214.643"/>
</g>
</svg>
