<?xml version="1.0" encoding="utf-8"?>
<!-- Generator: Adobe Illustrator 16.0.0, SVG Export Plug-In . SVG Version: 6.00 Build 0)  -->
<!DOCTYPE svg PUBLIC "-//W3C//DTD SVG 1.1//EN" "http://www.w3.org/Graphics/SVG/1.1/DTD/svg11.dtd">
<svg version="1.1" xmlns="http://www.w3.org/2000/svg" xmlns:xlink="http://www.w3.org/1999/xlink" x="0px" y="0px"
	 width="286.312px" height="215.344px" viewBox="0 0 286.312 215.344" enable-background="new 0 0 286.312 215.344"
	 xml:space="preserve">
<g id="Warstwa_2">
</g>
<g id="Warstwa_1">
	<g>
		<defs>
			<path id="SVGID_1_" d="M61.414,41.84c0.567,12.444,0.8,18.569,0.706,18.371c0.941,6.762,3.203,11.073,6.787,12.935
				c1.606-7.252,2.547-18.762,2.83-34.541c0.283-17.048,0.941-28.856,1.977-35.422c4.433-1.566,6.977,0.391,7.636,5.881
				c0.189,1.763,0.235,4.308,0.141,7.64c-0.19,3.92-0.235,6.322-0.141,7.204c0.942,23.907,1.839,40.813,2.686,50.708h5.513
				c1.509-6.858,2.406-18.813,2.688-35.864c0.283-16.656,1.221-28.514,2.83-35.568c3.392-1.566,5.604,0.243,6.643,5.438
				c0.282,1.272,0.565,5.684,0.85,13.227c0.279,4.901,0.515,13.916,0.706,27.045c0.189,11.66,0.424,19.991,0.707,24.988
				c4.051,0.097,6.692-1.569,7.916-4.998c0.85-2.155,1.415-6.909,1.7-14.259c0.282-5.193,0.75-13.666,1.412-25.428
				c0.657-11.366,1.13-20.037,1.415-26.014c1.13,0.197,2.495,0.1,4.101-0.294c1.601-0.391,2.969-0.539,4.098-0.439
				c0.565,6.759,0.803,16.02,0.708,27.779c-0.093,15.775-0.093,25.328,0,28.659c0.657,0.687,1.557,0.736,2.686,0.148
				c1.504,0.1,2.636-0.196,3.392-0.881c4.998-24.299,9.377-37.382,13.15-39.244c3.769,0.295,7.302,1.227,10.604,2.794
				c5.467,2.841,8.343,4.311,8.623,4.408c4.432,1.076,9.992-0.051,16.686-3.383c6.691-3.328,11.64-4.603,14.847-3.819
				c4.521,1.077,7.445,6.321,8.763,15.729c0.188,2.057,0.519,6.025,0.991,11.903c0.377,4.704,0.798,8.133,1.274,10.288
				c1.036,0.98,2.968,1.714,5.796,2.205c3.582,0.588,5.748,1.03,6.504,1.323c1.603,4.997,1.603,9.997,0,14.993
				c-6.129-2.157-10.7-3.331-13.715-3.529c-0.565,1.666-1.324,6.667-2.263,14.995c-0.85,7.25-2.17,12.246-3.96,14.992
				c23.659,7.348,36.056,21.36,37.191,42.037c0.464,8.424,0.512,19.693,0.136,33.804c-0.565,20.282-0.848,31.651-0.848,34.099
				c-9.426-0.195-31.295-0.195-65.604,0c-28.084,0.198-50.189-0.046-66.31-0.733c0.471-8.035,0.424-20.037-0.141-36.008
				c-0.471-14.504-0.424-25.137,0.141-31.898c1.036-10.778,5.04-19.841,12.018-27.189c6.789-7.156,15.361-11.613,25.731-13.376
				c-3.019-17.737-4.381-27.976-4.098-30.72c-6.128-0.391-12.349,2.303-18.666,8.085c-6.127,5.683-12.49,8.23-19.085,7.643
				c-0.568,14.601-0.803,34.832-0.706,60.702c0.091,35.572,0.091,56.735,0,63.495c-5.28,1.569-10.513,1.569-15.697,0V87.55
				c-8.857-0.195-15.55-1.275-20.077-3.235c-5.56-2.45-9.187-6.612-10.884-12.493c-1.886-6.467-2.26-17.394-1.13-32.775
				c1.222-17.051,1.363-28.759,0.421-35.127c1.509-1.47,4.242-1.717,8.202-0.736C59.667,4.852,60.376,17.736,61.414,41.84
				 M115.564,152.664c-0.282,4.704-0.235,12.297,0.144,22.78c0.186,10.291,0.186,17.836,0,22.635
				c-0.85-0.39,3.721-0.147,13.712,0.734c-0.188-5.779-0.141-19.646,0.144-41.595c0.094-16.852-0.191-28.906-0.851-36.155
				C120.701,125.275,116.32,135.811,115.564,152.664 M155.154,32.432c-3.582-1.467-5.891-1.323-6.927,0.439
				c-3.772,6.272-5.705,14.014-5.798,23.224c11.785-2.252,29.882-2.497,54.294-0.734c-2.073-17.246-3.205-26.064-3.395-26.456
				c-20.645,4.997-30.256,7.641-28.843,7.937C162.315,36.449,159.206,34.982,155.154,32.432 M144.55,116.799v39.98
				c4.713,0.391,12.915,0.438,24.603,0.146c13.38-0.296,22.338-0.342,26.861-0.146c1.225-13.132,1.225-27.193,0-42.184
				c-4.242,0.097-8.719,1.861-13.432,5.292c-4.997,3.721-9.239,5.78-12.723,6.169c-3.112-0.686-6.98-2.592-11.596-5.727
				c-4.524-3.138-8.437-5.05-11.734-5.734C145.02,114.498,144.358,115.231,144.55,116.799 M170.563,116.066
				c8.294-2.745,14.612-8.576,18.947-17.49c4.242-8.623,5.704-18.277,4.384-28.957c-16.026-3.041-31.812-3.041-47.364,0
				C144.55,93.724,152.56,109.205,170.563,116.066 M152.328,74.763c-0.756,0.686-1.227,1.567-1.415,2.646
				c-0.377,2.156,0.094,3.873,1.415,5.144c1.13,1.081,2.636,1.568,4.522,1.472c1.885-0.1,3.394-0.734,4.526-1.912
				c1.223-1.272,1.556-2.94,0.988-4.998c-0.377-1.372-1.181-2.448-2.403-3.232c-1.324-0.688-2.781-0.881-4.383-0.59
				C154.257,73.488,153.175,73.979,152.328,74.763 M176.219,75.055c-0.754,0.688-1.223,1.569-1.413,2.648
				c-0.375,2.153,0.093,3.871,1.413,5.146c1.134,1.076,2.638,1.567,4.525,1.467c1.886-0.096,3.394-0.733,4.523-1.909
				c1.225-1.275,1.557-2.941,0.992-4.998c-0.38-1.371-1.182-2.45-2.407-3.235c-1.32-0.685-2.778-0.881-4.38-0.585
				C178.15,73.782,177.068,74.272,176.219,75.055 M217.365,199.403c3.109-0.491,5.137-0.685,6.078-0.59
				c-0.19-3.623-0.047-10.091,0.427-19.399c0.565-9.896,0.753-17.293,0.565-22.195c-0.377-17.832-4.575-29.396-12.585-34.686
				c-1.323,28.609-1.323,54.04,0,76.28C213.265,199.501,215.1,199.698,217.365,199.403"/>
		</defs>
		<clipPath id="SVGID_2_">
			<use xlink:href="#SVGID_1_"  overflow="visible"/>
		</clipPath>
		<linearGradient id="SVGID_3_" gradientUnits="userSpaceOnUse" x1="0" y1="108.0229" x2="286.312" y2="108.0229">
			<stop  offset="0" style="stop-color:#FFF33B"/>
			<stop  offset="0.0595" style="stop-color:#FFE029"/>
			<stop  offset="0.1303" style="stop-color:#FFD218"/>
			<stop  offset="0.2032" style="stop-color:#FEC90F"/>
			<stop  offset="0.2809" style="stop-color:#FDC70C"/>
			<stop  offset="0.6685" style="stop-color:#F3903F"/>
			<stop  offset="0.8876" style="stop-color:#ED683C"/>
			<stop  offset="1" style="stop-color:#E93E3A"/>
		</linearGradient>
		<rect y="0.701" clip-path="url(#SVGID_2_)" fill="url(#SVGID_3_)" width="286.312" height="214.643"/>
	</g>
</g>
</svg>
